<svg width="20" height="20" viewBox="0 0 20 20" fill="none" xmlns="http://www.w3.org/2000/svg">
<path d="M19 6.20703V8.88989C19 15.5599 13.33 18.89 10 20C8.98202 19.658 7.74897 19.115 6.52297 18.332C6.25597 18.162 6.22112 17.7799 6.44412 17.5559L18.146 5.854C18.461 5.539 19 5.76203 19 6.20703ZM19.5301 0.469971C19.2371 0.176971 18.762 0.176971 18.469 0.469971L16.4961 2.44312C13.3291 1.65912 11.8031 0.901 10.0191 0C7.77907 1.11 5.99905 2 0.999047 3C0.999047 4.14 0.999047 7.69989 0.999047 8.88989C0.999047 11.6609 1.99193 13.8581 3.37893 15.5591L0.468041 18.47C0.175041 18.763 0.175041 19.238 0.468041 19.531C0.614041 19.677 0.80607 19.751 0.99807 19.751C1.19007 19.751 1.3821 19.678 1.5281 19.531L19.5281 1.53101C19.8231 1.23701 19.8231 0.762971 19.5301 0.469971Z" fill="#7F5EA3"/>
</svg>
