<svg width="12" height="12" viewBox="0 0 12 12" fill="none" xmlns="http://www.w3.org/2000/svg">
<path d="M9.74666 0H2.25334C0.753337 0 0 0.746663 0 2.24666V9.74666C0 11.2467 0.753337 12 2.25334 12H9.74666C11.2533 12 12 11.2467 12 9.74666V2.24666C12 0.746663 11.2533 0 9.74666 0ZM8.33333 6.5H6.5V8.33333C6.5 8.60667 6.27333 8.83333 6 8.83333C5.72667 8.83333 5.5 8.60667 5.5 8.33333V6.5H3.66667C3.39333 6.5 3.16667 6.27333 3.16667 6C3.16667 5.72667 3.39333 5.5 3.66667 5.5H5.5V3.66667C5.5 3.39333 5.72667 3.16667 6 3.16667C6.27333 3.16667 6.5 3.39333 6.5 3.66667V5.5H8.33333C8.60667 5.5 8.83333 5.72667 8.83333 6C8.83333 6.27333 8.60667 6.5 8.33333 6.5Z" fill="#392A4B"/>
</svg>
