<svg width="14" height="14" viewBox="0 0 14 14" fill="none" xmlns="http://www.w3.org/2000/svg">
<g opacity="0.8">
<path d="M11.667 3.64582H11.2237C11.0878 3.64746 10.9543 3.6105 10.8387 3.53925C10.723 3.468 10.63 3.36538 10.5703 3.24332L10.0453 2.19915C9.91315 1.93182 9.70856 1.70698 9.45486 1.55022C9.20116 1.39346 8.90854 1.31109 8.61033 1.31249H5.39033C5.09211 1.31109 4.79949 1.39346 4.54579 1.55022C4.29209 1.70698 4.0875 1.93182 3.95533 2.19915L3.43033 3.24332C3.3707 3.36538 3.27764 3.468 3.16199 3.53925C3.04633 3.6105 2.91283 3.64746 2.77699 3.64582H2.33366C1.90821 3.64582 1.50018 3.81483 1.19934 4.11567C0.898502 4.41651 0.729492 4.82454 0.729492 5.24999V11.0833C0.729492 11.5088 0.898502 11.9168 1.19934 12.2176C1.50018 12.5185 1.90821 12.6875 2.33366 12.6875H11.667C12.0924 12.6875 12.5005 12.5185 12.8013 12.2176C13.1021 11.9168 13.2712 11.5088 13.2712 11.0833V5.24999C13.2712 4.82454 13.1021 4.41651 12.8013 4.11567C12.5005 3.81483 12.0924 3.64582 11.667 3.64582ZM7.00033 10.6458C6.39462 10.6458 5.80252 10.4662 5.29889 10.1297C4.79527 9.79318 4.40274 9.31489 4.17094 8.75529C3.93915 8.19569 3.8785 7.57992 3.99667 6.98586C4.11484 6.39179 4.40651 5.8461 4.83481 5.41781C5.26311 4.98951 5.80879 4.69783 6.40286 4.57967C6.99693 4.4615 7.61269 4.52215 8.17229 4.75394C8.73189 4.98573 9.21019 5.37826 9.5467 5.88189C9.88321 6.38551 10.0628 6.97762 10.0628 7.58332C10.0613 8.39507 9.73813 9.17314 9.16414 9.74713C8.59014 10.3211 7.81208 10.6443 7.00033 10.6458Z" fill="#E5E5E5"/>
<path d="M7 9.77081C8.20812 9.77081 9.1875 8.79144 9.1875 7.58331C9.1875 6.37519 8.20812 5.39581 7 5.39581C5.79188 5.39581 4.8125 6.37519 4.8125 7.58331C4.8125 8.79144 5.79188 9.77081 7 9.77081Z" fill="#E5E5E5"/>
</g>
</svg>
