<svg width="20" height="20" viewBox="0 0 20 20" fill="none" xmlns="http://www.w3.org/2000/svg">
<path opacity="0.3" d="M10 20C15.5228 20 20 15.5228 20 10C20 4.47715 15.5228 0 10 0C4.47715 0 0 4.47715 0 10C0 15.5228 4.47715 20 10 20Z" fill="#82645A"/>
<path d="M14.25 10.75H10C9.80189 10.7474 9.61263 10.6676 9.47253 10.5275C9.33244 10.3874 9.25259 10.1981 9.25 10V4C9.25 3.80109 9.32902 3.61032 9.46967 3.46967C9.61032 3.32902 9.80109 3.25 10 3.25C10.1989 3.25 10.3897 3.32902 10.5303 3.46967C10.671 3.61032 10.75 3.80109 10.75 4V9.27H14.25C14.4489 9.27 14.6397 9.34902 14.7803 9.48967C14.921 9.63032 15 9.82109 15 10.02C15 10.2189 14.921 10.4097 14.7803 10.5503C14.6397 10.691 14.4489 10.77 14.25 10.77V10.75Z" fill="#82645A"/>
</svg>
