<svg width="14" height="14" viewBox="0 0 14 14" fill="none" xmlns="http://www.w3.org/2000/svg">
<path d="M8.41401 7.00022L13.707 1.70719C14.098 1.31719 14.098 0.68325 13.707 0.29325C13.316 -0.09775 12.684 -0.09775 12.293 0.29325L7.00001 5.58622L1.70701 0.29325C1.31601 -0.09775 0.684006 -0.09775 0.293006 0.29325C-0.0979941 0.68325 -0.0979941 1.31719 0.293006 1.70719L5.58601 7.00022L0.293006 12.2933C-0.0979941 12.6833 -0.0979941 13.3172 0.293006 13.7072C0.488006 13.9022 0.744007 14.0002 1.00001 14.0002C1.25601 14.0002 1.51201 13.9022 1.70701 13.7072L7.00001 8.41422L12.293 13.7072C12.488 13.9022 12.744 14.0002 13 14.0002C13.256 14.0002 13.512 13.9022 13.707 13.7072C14.098 13.3172 14.098 12.6833 13.707 12.2933L8.41401 7.00022Z" fill="#25314C"/>
</svg>
