<svg width="8" height="8" viewBox="0 0 8 8" fill="none" xmlns="http://www.w3.org/2000/svg">
<path d="M4.82257 3.99999L6.91674 1.92332C7.02813 1.81038 7.0901 1.65782 7.089 1.4992C7.08791 1.34057 7.02385 1.18888 6.91091 1.07749C6.79797 0.966097 6.64541 0.904133 6.48678 0.905227C6.32816 0.906321 6.17647 0.970383 6.06507 1.08332L4.00007 3.17749L1.93507 1.12415C1.82578 1.01551 1.67793 0.954525 1.52382 0.954525C1.36972 0.954525 1.22187 1.01551 1.11257 1.12415C1.0579 1.17838 1.0145 1.2429 0.984888 1.31398C0.955273 1.38507 0.940026 1.46131 0.940026 1.53832C0.940026 1.61533 0.955273 1.69157 0.984888 1.76266C1.0145 1.83374 1.0579 1.89826 1.11257 1.95249L3.17757 3.99999L1.08341 6.07665C0.972017 6.18959 0.910053 6.34215 0.911147 6.50078C0.912241 6.6594 0.976304 6.8111 1.08924 6.92249C1.20218 7.03388 1.35474 7.09584 1.51337 7.09475C1.67199 7.09366 1.82368 7.02959 1.93507 6.91665L4.00007 4.82249L6.06507 6.87582C6.17437 6.98447 6.32222 7.04545 6.47633 7.04545C6.63043 7.04545 6.77828 6.98447 6.88758 6.87582C6.94225 6.82159 6.98565 6.75707 7.01526 6.68599C7.04488 6.61491 7.06012 6.53866 7.06012 6.46165C7.06012 6.38465 7.04488 6.3084 7.01526 6.23732C6.98565 6.16623 6.94225 6.10172 6.88758 6.04749L4.82257 3.99999Z" fill="#A1A1A1"/>
</svg>
