<svg width="24" height="24" viewBox="0 0 24 24" fill="none" xmlns="http://www.w3.org/2000/svg">
<path opacity="0.3" d="M16.2524 22.9006L7.94761 22.9996C7.22818 23.0098 6.53213 22.7442 6.00234 22.2574C5.47254 21.7705 5.1492 21.0994 5.09868 20.3816L4.2957 8.89793C4.28342 8.72992 4.30635 8.5612 4.36302 8.40257C4.4197 8.24393 4.50888 8.09888 4.62485 7.9767C4.74082 7.85451 4.88103 7.75789 5.03649 7.69302C5.19196 7.62815 5.35925 7.59645 5.52767 7.59996H18.4634C18.6308 7.59658 18.7971 7.62798 18.9518 7.69219C19.1064 7.7564 19.2461 7.85202 19.3619 7.97299C19.4777 8.09396 19.5671 8.23765 19.6245 8.39497C19.6819 8.55229 19.706 8.71981 19.6953 8.88693L19.0463 20.2387C19.0071 20.9547 18.6962 21.6288 18.177 22.1235C17.6579 22.6181 16.9695 22.8961 16.2524 22.9006Z" fill="#EC003F"/>
<path d="M13.5907 16.1797C13.8093 16.1797 14.0191 16.2663 14.1737 16.4209C14.3284 16.5756 14.4159 16.7861 14.4159 17.0049C14.4158 17.2235 14.3283 17.4333 14.1737 17.5879C14.0191 17.7425 13.8094 17.829 13.5907 17.8291H10.4003C10.1816 17.829 9.9719 17.7425 9.81726 17.5879C9.66265 17.4333 9.57617 17.2235 9.57605 17.0049C9.57605 16.7861 9.66255 16.5756 9.81726 16.4209C9.9719 16.2663 10.1816 16.1798 10.4003 16.1797H13.5907ZM14.4481 12.1104C14.6669 12.1104 14.8774 12.1968 15.0321 12.3516C15.1867 12.5062 15.2732 12.7159 15.2733 12.9346C15.2733 13.1534 15.1868 13.3638 15.0321 13.5186C14.8774 13.6732 14.6669 13.7598 14.4481 13.7598H9.54285C9.32405 13.7598 9.11358 13.6733 8.95886 13.5186C8.8042 13.3638 8.71765 13.1533 8.71765 12.9346C8.71774 12.716 8.80438 12.5062 8.95886 12.3516C9.11358 12.1968 9.32405 12.1104 9.54285 12.1104H14.4481ZM13.953 1C14.4332 1.00182 14.8982 1.1706 15.2675 1.47754C15.6367 1.78457 15.8879 2.21082 15.9774 2.68262L16.2831 4.54492C17.9232 4.65184 19.5606 4.81826 21.1913 5.04785C21.3946 5.08126 21.5784 5.18968 21.7059 5.35156C21.8333 5.51341 21.8959 5.71747 21.8807 5.92285C21.8655 6.1282 21.7737 6.3206 21.6239 6.46191C21.474 6.60333 21.2763 6.68336 21.0702 6.68652V6.67578H20.9491C15.0115 5.85938 8.99016 5.85936 3.05261 6.67578C2.84005 6.70375 2.62507 6.64742 2.453 6.51953C2.28086 6.39149 2.16508 6.20103 2.13074 5.98926C2.09652 5.77761 2.14565 5.56054 2.26843 5.38477C2.39129 5.20899 2.57836 5.08848 2.78894 5.04785C4.42971 4.81685 6.0771 4.64978 7.72742 4.54297L8.0907 2.67188C8.17892 2.20851 8.42371 1.78972 8.78406 1.48535C9.14447 1.181 9.59856 1.0094 10.0702 1H13.953Z" fill="#C70036"/>
</svg>
