<svg width="16" height="16" viewBox="0 0 16 16" fill="none" xmlns="http://www.w3.org/2000/svg">
<g clip-path="url(#clip0_2442_7915)">
<path opacity="0.1" d="M11.7881 0.853516C12.1432 0.853511 12.4895 0.967864 12.7744 1.17969L14.2324 2.25781C14.404 2.38326 14.5489 2.54238 14.6582 2.72461C14.7673 2.90673 14.8394 3.10914 14.8691 3.31934C14.8989 3.52956 14.8854 3.74396 14.8311 3.94922C14.8143 4.01265 14.792 4.07414 14.7676 4.13477C15.0228 4.71157 15.167 5.34919 15.167 6.02051V10.8203C15.1547 11.9833 14.6808 13.0943 13.8506 13.9092C13.0204 14.7238 11.9007 15.1759 10.7373 15.167H5.2627C4.09929 15.1759 2.97964 14.7238 2.14941 13.9092C1.31918 13.0943 0.845348 11.9833 0.833008 10.8203V5.7207C0.836493 5.14324 0.954234 4.57214 1.17871 4.04004C1.40324 3.50794 1.73031 3.02472 2.1416 2.61914C2.55297 2.21353 3.04074 1.89296 3.57617 1.67578C4.11162 1.4586 4.68485 1.34913 5.2627 1.35352H10.5C10.5235 1.35352 10.5469 1.35415 10.5703 1.35449C10.7038 1.21314 10.8623 1.09617 11.0371 1.00879C11.2682 0.893378 11.523 0.833049 11.7812 0.833008L11.7881 0.853516Z" fill="#7F5EA3"/>
<path d="M10.7371 15.1665H5.26222C4.09863 15.1754 2.97899 14.7228 2.14872 13.9079C1.31846 13.093 0.845315 11.9823 0.833008 10.8193V5.7198C0.836493 5.14223 0.953874 4.57101 1.17843 4.03882C1.40299 3.50663 1.73033 3.02392 2.14171 2.6183C2.55309 2.21268 3.04045 1.89211 3.5759 1.67493C4.11134 1.45774 4.68438 1.34821 5.26222 1.3526H7.62003C7.68563 1.3526 7.75058 1.36551 7.81119 1.39061C7.8718 1.4157 7.92687 1.45248 7.97325 1.49884C8.01964 1.5452 8.05643 1.60025 8.08154 1.66082C8.10664 1.7214 8.11956 1.78633 8.11956 1.8519C8.11956 1.91747 8.10664 1.98239 8.08154 2.04297C8.05643 2.10355 8.01964 2.15859 7.97325 2.20496C7.92687 2.25132 7.8718 2.2881 7.81119 2.31319C7.75058 2.33828 7.68563 2.3512 7.62003 2.3512H5.26222C4.36993 2.3458 3.51148 2.69224 2.87308 3.31538C2.23469 3.93852 1.86782 4.78811 1.85206 5.67986V10.7794C1.86782 11.6711 2.23469 12.5207 2.87308 13.1438C3.51148 13.767 4.36993 14.1134 5.26222 14.108H10.7371C11.6294 14.1134 12.4879 13.767 13.1263 13.1438C13.7647 12.5207 14.1315 11.6711 14.1473 10.7794V7.43739C14.1616 7.31235 14.2215 7.19695 14.3154 7.11317C14.4094 7.0294 14.5309 6.9831 14.6568 6.9831C14.7827 6.9831 14.9042 7.0294 14.9982 7.11317C15.0922 7.19695 15.152 7.31235 15.1663 7.43739V10.8193C15.154 11.9823 14.6809 13.093 13.8506 13.9079C13.0204 14.7228 11.9007 15.1754 10.7371 15.1665ZM11.7828 1.8519C11.6859 1.85004 11.59 1.87144 11.5031 1.9143C11.4162 1.95716 11.3408 2.02023 11.2833 2.09822L10.8903 2.60417C11.0227 3.14221 11.3442 3.61476 11.7961 3.93564C12.2143 4.25211 12.7236 4.42492 13.2481 4.42828H13.3281L13.721 3.92232C13.7701 3.85859 13.8059 3.78574 13.8265 3.70802C13.8471 3.6303 13.852 3.54926 13.8409 3.46963C13.8312 3.38997 13.8048 3.31324 13.7635 3.24443C13.7222 3.17562 13.6669 3.11625 13.6011 3.07019L12.1558 1.97839C12.049 1.8959 11.9178 1.85138 11.7828 1.8519ZM11.7828 0.8533C12.1379 0.853295 12.4836 0.967686 12.7686 1.17951L14.2272 2.25799C14.3987 2.38344 14.5434 2.54195 14.6527 2.72418C14.7619 2.90641 14.8336 3.10866 14.8633 3.319C14.8931 3.52935 14.8805 3.74353 14.8262 3.94891C14.7718 4.15429 14.6769 4.34671 14.5469 4.51482L14.1073 5.08735C14.0427 5.17272 13.9617 5.24436 13.8691 5.29808C13.7765 5.35181 13.674 5.38654 13.5678 5.40025H13.2481C12.5045 5.40371 11.779 5.17055 11.1767 4.73452C10.4882 4.23912 10.0124 3.50197 9.84463 2.67075C9.8288 2.56526 9.83483 2.45765 9.86233 2.35458C9.88982 2.25152 9.93821 2.1552 10.0045 2.07159L10.4441 1.49906C10.5992 1.29236 10.8003 1.12459 11.0315 1.00904C11.2627 0.893486 11.5177 0.833328 11.7762 0.833328L11.7828 0.8533ZM8.74565 5.38028L7.2537 7.34418C7.18832 7.42568 7.15095 7.52606 7.14713 7.63045V9.73416C7.14393 9.76004 7.14711 9.78631 7.15639 9.81068C7.16568 9.83505 7.1808 9.85678 7.20042 9.87397C7.24113 9.91486 7.29592 9.93867 7.35361 9.94054H7.41355L9.45166 9.34138C9.55219 9.30827 9.6404 9.24563 9.70476 9.16163L11.1967 7.23101C10.7227 7.04024 10.275 6.78966 9.86461 6.48539C9.45228 6.17848 9.08271 5.81804 8.76563 5.41356M8.79893 3.97558C8.87453 3.97381 8.94908 3.99351 9.01393 4.03239C9.07877 4.07128 9.13125 4.12776 9.16526 4.19527C9.49949 4.78041 9.95339 5.28854 10.4974 5.68651C11.0386 6.09059 11.6613 6.37226 12.3223 6.51202C12.3939 6.52306 12.4612 6.55303 12.5173 6.59881C12.5734 6.6446 12.6163 6.70455 12.6414 6.77245C12.6665 6.84035 12.6731 6.91372 12.6603 6.98499C12.6475 7.05625 12.6159 7.1228 12.5688 7.17775L10.5706 9.78742C10.375 10.0428 10.1014 10.2275 9.79134 10.3133L7.73326 10.9125C7.62088 10.9464 7.50429 10.9643 7.38691 10.9658C7.2258 10.9684 7.06578 10.9388 6.91632 10.8786C6.76685 10.8184 6.63098 10.7289 6.51673 10.6153C6.40248 10.5017 6.31217 10.3664 6.25113 10.2174C6.1901 10.0683 6.15958 9.90853 6.16138 9.74748V7.64376C6.16664 7.32448 6.27661 7.01575 6.47443 6.765L8.47257 4.15533C8.51285 4.10579 8.5636 4.06578 8.62117 4.03816C8.67875 4.01053 8.74173 3.99599 8.80559 3.99555L8.79893 3.97558Z" fill="#7F5EA3"/>
</g>
<defs>
<clipPath id="clip0_2442_7915">
<rect width="16" height="16" fill="white"/>
</clipPath>
</defs>
</svg>
