<svg width="36" height="35" viewBox="0 0 36 35" fill="none" xmlns="http://www.w3.org/2000/svg">
<rect x="1" y="0.5" width="34" height="34" rx="17" fill="white"/>
<rect x="1" y="0.5" width="34" height="34" rx="17" stroke="#E6ECE9"/>
<path d="M29.2784 13.2222L26.5562 14.6601L23.834 17.1438V25.6667H27.6451C28.5472 25.6667 29.2784 24.9645 29.2784 24.098V13.2222Z" fill="#4CAF50"/>
<path d="M6.72266 13.2222L8.69028 14.1163L12.1671 17.1438V25.6667H8.35599C7.45385 25.6667 6.72266 24.9645 6.72266 24.098V13.2222Z" fill="#1E88E5"/>
<path d="M24.06 10.8889L17.9998 15.2182L11.9396 10.8889L11.3887 13.9326L11.9396 17.4485L17.9998 21.7778L24.06 17.4485L24.6109 13.9326L24.06 10.8889Z" fill="#E53935"/>
<path d="M6.72266 11.4625V13.3956L12.1671 17.1111V10.9186L10.4663 9.75886C10.0612 9.48243 9.56901 9.33331 9.06268 9.33331C7.77017 9.33331 6.72266 10.2865 6.72266 11.4625Z" fill="#C62828"/>
<path d="M29.2784 11.4625V13.3956L23.834 17.1111V10.9186L25.5348 9.75886C25.9399 9.48243 26.4321 9.33331 26.9384 9.33331C28.2309 9.33331 29.2784 10.2865 29.2784 11.4625Z" fill="#FBC02D"/>
</svg>
