<svg width="16" height="14" viewBox="0 0 16 14" fill="none" xmlns="http://www.w3.org/2000/svg">
<path opacity="0.3" d="M8 0.579987C4.4525 0.579987 0.5 4.04499 0.5 6.99999C0.5 9.81999 4.4525 13.42 8 13.42C11.75 13.42 15.5 9.97749 15.5 6.99999C15.5 4.13499 11.5475 0.579987 8 0.579987ZM8 10.2625C7.35474 10.2625 6.72397 10.0711 6.18745 9.71266C5.65094 9.35417 5.23277 8.84464 4.98584 8.24849C4.73891 7.65235 4.6743 6.99637 4.80019 6.3635C4.92607 5.73064 5.2368 5.14932 5.69306 4.69305C6.14933 4.23678 6.73065 3.92606 7.36352 3.80017C7.99638 3.67429 8.65236 3.7389 9.2485 3.98583C9.84465 4.23276 10.3542 4.65092 10.7127 5.18744C11.0712 5.72395 11.2625 6.35472 11.2625 6.99999C11.2625 7.86525 10.9188 8.69508 10.3069 9.30692C9.6951 9.91876 8.86527 10.2625 8 10.2625Z" fill="#737373"/>
</svg>
