<svg width="25" height="24" viewBox="0 0 25 24" fill="none" xmlns="http://www.w3.org/2000/svg">
<path d="M12.5 15.2062C14.2707 15.2062 15.7062 13.7707 15.7062 12C15.7062 10.2292 14.2707 8.7937 12.5 8.7937C10.7292 8.7937 9.2937 10.2292 9.2937 12C9.2937 13.7707 10.7292 15.2062 12.5 15.2062Z" fill="#82645A"/>
<path opacity="0.3" d="M12.5 2.37C7.17875 2.37 1.25 7.56749 1.25 12C1.25 16.23 7.17875 21.63 12.5 21.63C18.125 21.63 23.75 16.4662 23.75 12C23.75 7.70249 17.8213 2.37 12.5 2.37ZM12.5 16.8937C11.5321 16.8937 10.586 16.6067 9.78118 16.069C8.9764 15.5313 8.34916 14.767 7.97876 13.8728C7.60837 12.9785 7.51146 11.9946 7.70028 11.0453C7.88911 10.096 8.35519 9.22399 9.0396 8.53959C9.724 7.85519 10.596 7.3891 11.5453 7.20028C12.4946 7.01145 13.4785 7.10836 14.3728 7.47876C15.267 7.84916 16.0313 8.4764 16.569 9.28117C17.1067 10.0859 17.3938 11.0321 17.3938 12C17.3938 13.2979 16.8782 14.5426 15.9604 15.4604C15.0426 16.3782 13.7979 16.8937 12.5 16.8937Z" fill="#82645A"/>
</svg>
