<svg width="20" height="20" viewBox="0 0 20 20" fill="none" xmlns="http://www.w3.org/2000/svg">
<path opacity="0.1" d="M14.0709 1.56876H5.44362C5.00729 1.5667 4.57484 1.65073 4.17103 1.81604C3.76722 1.98135 3.39999 2.22469 3.09036 2.53213C2.78074 2.83957 2.5348 3.20507 2.36663 3.6077C2.19847 4.01032 2.11138 4.44217 2.11035 4.8785V15.1214C2.11138 15.5578 2.19847 15.9896 2.36663 16.3923C2.5348 16.7949 2.78074 17.1604 3.09036 17.4678C3.39999 17.7753 3.76722 18.0186 4.17103 18.1839C4.57484 18.3492 5.00729 18.4333 5.44362 18.4312H14.0709C14.9481 18.4291 15.7887 18.0798 16.409 17.4595C17.0292 16.8393 17.3786 15.9986 17.3806 15.1214V4.8785C17.3786 4.00134 17.0292 3.1607 16.409 2.54045C15.7887 1.9202 14.9481 1.57083 14.0709 1.56876Z" fill="#35231A"/>
<path d="M14.112 1.48963H5.40365C4.96322 1.48755 4.5267 1.57237 4.1191 1.73923C3.7115 1.90609 3.34082 2.15172 3.02828 2.46205C2.71575 2.77238 2.4675 3.14131 2.29775 3.54772C2.12801 3.95413 2.0401 4.39003 2.03906 4.83046V15.1696C2.0401 15.6101 2.12801 16.046 2.29775 16.4524C2.4675 16.8588 2.71575 17.2277 3.02828 17.538C3.34082 17.8484 3.7115 18.094 4.1191 18.2609C4.5267 18.4277 4.96322 18.5126 5.40365 18.5105H14.112C14.9974 18.5084 15.8459 18.1557 16.472 17.5296C17.0981 16.9036 17.4507 16.055 17.4528 15.1696V4.83046C17.4507 3.94506 17.0981 3.09652 16.472 2.47045C15.8459 1.84437 14.9974 1.49172 14.112 1.48963ZM16.2653 15.1696C16.2653 15.7407 16.0384 16.2884 15.6346 16.6923C15.2308 17.0961 14.6831 17.323 14.112 17.323H5.40365C4.83255 17.323 4.28484 17.0961 3.88101 16.6923C3.47718 16.2884 3.25031 15.7407 3.25031 15.1696V14.6946C3.2524 14.2376 3.43489 13.7998 3.7581 13.4766C4.0813 13.1534 4.51907 12.9709 4.97615 12.9688H16.2891L16.2653 15.1696ZM4.9524 11.7813C4.32818 11.7881 3.72286 11.9964 3.22656 12.375V4.83046C3.22655 4.54568 3.28302 4.26371 3.39272 4.0009C3.50241 3.73808 3.66315 3.49964 3.86563 3.29937C4.06811 3.0991 4.3083 2.94098 4.57231 2.83418C4.83631 2.72737 5.11887 2.67399 5.40365 2.67713H14.112C14.6831 2.67713 15.2308 2.904 15.6346 3.30783C16.0384 3.71166 16.2653 4.25936 16.2653 4.83046V11.7813H4.9524ZM13.7795 6.04171C13.7774 6.19855 13.7142 6.34838 13.6033 6.45929C13.4924 6.5702 13.3426 6.63341 13.1857 6.63546H6.31406C6.15659 6.63546 6.00557 6.57291 5.89422 6.46156C5.78287 6.35021 5.72031 6.19919 5.72031 6.04171C5.72031 5.88424 5.78287 5.73322 5.89422 5.62187C6.00557 5.51052 6.15659 5.44796 6.31406 5.44796H13.1857C13.3426 5.45002 13.4924 5.51323 13.6033 5.62414C13.7142 5.73505 13.7774 5.88488 13.7795 6.04171ZM11.4916 8.86797C11.4916 9.02544 11.429 9.17646 11.3177 9.28781C11.2063 9.39916 11.0553 9.46172 10.8978 9.46172H6.31406C6.15659 9.46172 6.00557 9.39916 5.89422 9.28781C5.78287 9.17646 5.72031 9.02544 5.72031 8.86797C5.72031 8.71049 5.78287 8.55947 5.89422 8.44812C6.00557 8.33677 6.15659 8.27422 6.31406 8.27422H10.8978C11.0546 8.27627 11.2045 8.33948 11.3154 8.45039C11.4263 8.5613 11.4895 8.71113 11.4916 8.86797Z" fill="#35231A"/>
</svg>
