<svg width="18" height="18" viewBox="0 0 18 18" fill="none" xmlns="http://www.w3.org/2000/svg">
<path d="M4.03999 18H0.249998V6.63002H4.03999V18ZM4.42 2.21002C4.42 1.01002 3.47 0.040013 2.27 1.29963e-05C1.05 -0.029987 0.0299977 0.930007 -2.26247e-06 2.15001C-0.0300023 3.37001 0.929992 4.39001 2.14999 4.42001C3.38999 4.43001 4.4 3.45002 4.42 2.21002ZM17.95 11.13C17.95 7.59002 15.66 6.51001 13.71 6.51001C12.34 6.47001 11.05 7.14001 10.3 8.28001V6.64001H6.64V18.01H10.43V12.11C10.43 12.05 10.43 11.99 10.43 11.93C10.43 11.93 10.43 11.93 10.43 11.92C10.35 10.71 11.27 9.66002 12.48 9.58002C13.47 9.58002 14.22 10.22 14.22 12.02V18.01H18.01L17.96 11.14L17.95 11.13Z" fill="#0077B5"/>
</svg>
