<svg width="156" height="38" viewBox="0 0 156 38" fill="none" xmlns="http://www.w3.org/2000/svg">
<path d="M29.1705 4.51669C29.3706 4.69831 29.5593 4.88474 29.7429 5.08284C29.923 5.26574 30.1026 5.42678 30.2984 5.5917C30.849 6.06997 31.3597 6.58794 31.8741 7.1041C32.0581 7.28877 32.2425 7.47312 32.4269 7.65739C32.8846 8.11484 33.3418 8.57283 33.799 9.0308C34.1865 9.4189 34.5742 9.80679 34.9622 10.1944C35.1426 10.3748 35.3227 10.5555 35.5028 10.7362C35.9995 11.2334 36.4979 11.7216 37.0338 12.1773C37.4875 12.5768 37.9109 13.0095 38.3397 13.4352C38.391 13.4861 38.4424 13.537 38.4953 13.5894C38.7666 13.8583 39.0376 14.1274 39.3084 14.3968C39.5862 14.6731 39.8649 14.9484 40.1438 15.2236C40.3602 15.4373 40.5758 15.6517 40.7913 15.8662C40.8937 15.968 40.9964 16.0695 41.0993 16.1708C41.9513 17.0097 42.7184 17.8102 42.7473 19.0704C42.7418 20.8993 41.7386 21.7642 40.5086 22.9841C40.3132 23.1774 40.1176 23.3704 39.922 23.5634C39.6604 23.8215 39.3991 24.0799 39.138 24.3384C39.0782 24.3972 39.0184 24.456 38.9567 24.5166C38.5275 24.9411 38.5275 24.9411 38.3789 25.5103C38.3923 26.0843 38.7382 26.3494 39.1256 26.7379C39.2317 26.8535 39.3373 26.9697 39.4425 27.0863C39.5567 27.212 39.6709 27.3376 39.7851 27.4633C39.8398 27.5239 39.8946 27.5846 39.951 27.647C40.3242 28.0507 40.6496 28.3854 41.2161 28.4677C41.6162 28.4096 41.7276 28.3195 42.0125 28.0275C42.2074 27.6547 42.3567 27.2654 42.5103 26.8743C43.6769 24.0273 45.1517 21.3719 46.99 18.9009C47.0326 18.8435 47.0751 18.7861 47.119 18.7269C48.7479 16.5396 50.6427 14.3417 52.7994 12.6598C53.0417 12.4693 53.275 12.271 53.5077 12.069C55.4006 10.4332 57.5484 9.10098 59.7325 7.88955C59.8125 7.84506 59.8925 7.80058 59.9749 7.75474C62.0064 6.63512 64.1283 5.74441 66.3277 5.0127C66.4282 4.9791 66.4282 4.9791 66.5308 4.94483C67.2691 4.69975 68.012 4.47669 68.7651 4.28108C68.865 4.2543 68.865 4.2543 68.9669 4.22698C69.3039 4.14257 69.557 4.09124 69.8866 4.21908C69.7471 4.2848 69.7471 4.2848 69.6047 4.35185C66.9883 5.58713 64.4782 6.8941 62.1217 8.58396C62.052 8.6338 61.9822 8.68364 61.9104 8.73499C59.8236 10.2355 57.8181 11.9859 56.1487 13.9409C56.0703 14.03 55.9919 14.1191 55.9111 14.2109C52.2475 18.4044 49.6956 23.5892 48.3701 28.9738C47.9352 30.7404 47.1026 32.1337 45.5225 33.1143C44.41 33.7005 43.0062 34.1049 41.745 33.806C40.7058 33.3523 39.8179 32.203 39.0235 31.4054C38.8512 31.2323 38.6785 31.0596 38.5057 30.887C38.1396 30.521 37.7739 30.1547 37.4083 29.7883C36.9825 29.3616 36.5565 28.9351 36.13 28.509C35.9613 28.3402 35.7929 28.1712 35.6245 28.0021C35.1485 27.5255 34.6692 27.0604 34.156 26.6232C33.6783 26.2012 33.2308 25.7454 32.7781 25.2971C32.7234 25.2431 32.6687 25.189 32.6124 25.1333C32.3237 24.8476 32.0352 24.5616 31.747 24.2754C31.4513 23.9818 31.1545 23.6894 30.8574 23.3973C30.6271 23.1704 30.3976 22.9426 30.1684 22.7145C30.0594 22.6064 29.9501 22.4986 29.8404 22.3911C28.8871 21.4563 28.2565 20.6951 28.2435 19.3288C28.2409 18.0948 28.7918 17.2936 29.6379 16.4302C29.7726 16.2967 29.9078 16.1636 30.0435 16.0311C30.1154 15.96 30.1872 15.8889 30.2612 15.8157C30.4883 15.5912 30.716 15.3674 30.9438 15.1437C31.1732 14.9177 31.4026 14.6916 31.6316 14.4653C31.7736 14.325 31.9159 14.185 32.0584 14.0453C32.1222 13.9823 32.1861 13.9194 32.2518 13.8545C32.3082 13.7992 32.3645 13.7438 32.4226 13.6868C32.6249 13.4691 32.6567 13.334 32.7046 13.0356C32.6526 12.6344 32.6238 12.5751 32.3662 12.2943C32.3029 12.2253 32.2397 12.1562 32.1744 12.085C31.772 11.6624 31.3632 11.2467 30.95 10.8346C30.8623 10.746 30.7747 10.6575 30.6844 10.5663C30.5993 10.4813 30.5142 10.3963 30.4266 10.3088C30.3502 10.2322 30.2738 10.1557 30.1951 10.0769C29.8492 9.76871 29.5831 9.59219 29.1207 9.52638C28.6724 9.5902 28.5667 9.73411 28.2746 10.072C28.1116 10.3658 28.1116 10.3658 27.9849 10.6912C27.9601 10.7504 27.9353 10.8096 27.9098 10.8705C27.8568 10.9971 27.8043 11.1239 27.7523 11.2509C27.6136 11.5881 27.4701 11.9233 27.3261 12.2583C27.2972 12.3257 27.2682 12.393 27.2384 12.4624C26.0046 15.3094 24.2774 17.9976 22.3015 20.389C22.2567 20.4434 22.2118 20.4978 22.1655 20.5539C21.2438 21.666 20.2676 22.7212 19.2466 23.7432C19.1768 23.8132 19.1071 23.8832 19.0352 23.9553C18.5805 24.407 18.1115 24.8353 17.6227 25.2499C17.5275 25.3308 17.5275 25.3308 17.4304 25.4134C12.6994 29.4084 6.66518 32.8081 0.5 33.8804C0.5 33.8149 0.5 33.7495 0.5 33.682C0.607109 33.6343 0.607109 33.6343 0.716381 33.5857C4.5854 31.8535 8.17425 29.7055 11.3187 26.8475C11.5215 26.6645 11.7276 26.4868 11.9359 26.3101C12.2872 26.0047 12.6197 25.6828 12.95 25.3553C12.9981 25.3078 13.0461 25.2604 13.0956 25.2116C17.5933 20.7108 20.2518 14.9684 21.9721 8.93824C22.4773 7.18265 23.2501 5.75077 24.8899 4.81429C26.1133 4.21431 27.9628 3.57862 29.1705 4.51669ZM24.7903 8.88157C24.7397 9.00523 24.6901 9.12932 24.641 9.25357C24.6133 9.32263 24.5855 9.39168 24.557 9.46283C24.4722 9.70139 24.4722 9.70139 24.4917 10.072C24.6231 10.072 24.7545 10.072 24.8899 10.072C24.9884 9.71188 25.087 9.35178 25.1885 8.98077C25.0571 8.94803 24.9257 8.91529 24.7903 8.88157ZM23.3966 12.8496C23.2298 13.2068 23.0642 13.5644 22.8988 13.9223C22.8514 14.0239 22.8039 14.1255 22.755 14.2301C22.71 14.3276 22.6651 14.4251 22.6189 14.5256C22.5772 14.6155 22.5354 14.7054 22.4925 14.7979C22.383 15.0364 22.383 15.0364 22.4011 15.3297C22.7135 15.2616 22.7135 15.2616 22.8342 15.0098C22.8785 14.9147 22.9228 14.8196 22.9685 14.7217C23.0411 14.5677 23.0411 14.5677 23.1152 14.4107C23.1898 14.2487 23.1898 14.2487 23.2659 14.0835C23.3168 13.9751 23.3677 13.8667 23.4201 13.755C23.5459 13.4867 23.6708 13.218 23.7948 12.9488C23.6634 12.9161 23.532 12.8834 23.3966 12.8496ZM53.5604 14.2385C53.2976 14.5004 53.0347 14.7622 52.764 15.0321C52.7968 15.0975 52.8297 15.163 52.8635 15.2305C53.1263 14.9686 53.3891 14.7067 53.6599 14.4369C53.6271 14.3714 53.5942 14.3059 53.5604 14.2385ZM52.6644 15.2305C52.5659 15.3287 52.4673 15.4269 52.3658 15.5281C52.3986 15.5936 52.4315 15.659 52.4653 15.7265C52.5639 15.6283 52.6624 15.5301 52.764 15.4289C52.7311 15.3634 52.6983 15.2979 52.6644 15.2305ZM33.1525 17.1153C33.0852 17.1813 33.0178 17.2473 32.9484 17.3153C32.4019 17.8889 32.0516 18.5466 32.0077 19.3474C32.0739 20.3188 32.5087 20.8914 33.1774 21.567C33.2403 21.6308 33.3032 21.6945 33.368 21.7602C33.9871 22.3588 34.6124 22.7288 35.485 22.778C36.488 22.7461 37.0451 22.2638 37.7319 21.5794C37.8063 21.5134 37.8807 21.4474 37.9574 21.3794C38.5993 20.7967 38.9328 20.1641 38.9762 19.2916C38.9315 18.3726 38.4531 17.7544 37.8314 17.1153C37.7735 17.0527 37.7157 16.99 37.656 16.9254C37.128 16.3697 36.5755 15.968 35.7891 15.9047C34.5743 15.884 34.0066 16.2656 33.1525 17.1153ZM20.8083 17.9089C20.6352 18.1054 20.6352 18.1054 20.4742 18.3646C20.4123 18.4586 20.3504 18.5526 20.2866 18.6495C20.2226 18.7488 20.1587 18.8482 20.0928 18.9505C20.0276 19.0499 19.9625 19.1493 19.8954 19.2516C19.7342 19.4979 19.574 19.7447 19.4146 19.9922C19.4803 20.0576 19.546 20.1231 19.6137 20.1906C19.8073 19.9224 19.9999 19.6535 20.1923 19.3846C20.2468 19.3091 20.3013 19.2337 20.3574 19.1559C20.6456 18.7522 20.9008 18.3601 21.1069 17.9089C21.0084 17.9089 20.9098 17.9089 20.8083 17.9089ZM50.3748 18.0081C50.2058 18.2176 50.0495 18.4266 49.8957 18.6467C49.8288 18.7411 49.8288 18.7411 49.7606 18.8374C49.434 19.3042 49.1382 19.7809 48.8815 20.2898C48.9801 20.2898 49.0786 20.2898 49.1802 20.2898C49.3395 20.0753 49.4784 19.8666 49.6157 19.6388C49.695 19.5109 49.7745 19.3832 49.8541 19.2555C49.8921 19.1941 49.9302 19.1326 49.9694 19.0693C50.0982 18.8661 50.237 18.6721 50.381 18.4793C50.593 18.2351 50.593 18.2351 50.5739 18.0081C50.5082 18.0081 50.4425 18.0081 50.3748 18.0081ZM17.2618 22.7202C17.1838 22.8021 17.1058 22.8839 17.0254 22.9682C17.0582 23.0337 17.0911 23.0992 17.1249 23.1666C17.322 22.9375 17.5191 22.7083 17.7222 22.4722C17.487 22.4494 17.487 22.4494 17.2618 22.7202ZM47.2887 22.869C47.1215 23.2073 46.9561 23.5465 46.7909 23.8858C46.7435 23.9819 46.696 24.0779 46.6471 24.1769C46.6021 24.2696 46.5572 24.3623 46.511 24.4578C46.4693 24.543 46.4275 24.6282 46.3846 24.716C46.2693 24.9718 46.2693 24.9718 46.2932 25.3491C46.3917 25.3491 46.4903 25.3491 46.5918 25.3491C46.7587 24.9919 46.9243 24.6342 47.0896 24.2764C47.1371 24.1748 47.1846 24.0732 47.2335 23.9686C47.2784 23.8711 47.3233 23.7736 47.3696 23.6731C47.4113 23.5832 47.453 23.4933 47.496 23.4007C47.6054 23.1623 47.6054 23.1623 47.5873 22.869C47.4888 22.869 47.3902 22.869 47.2887 22.869ZM16.9258 23.1666C16.5973 23.494 16.2688 23.8214 15.9303 24.1586C15.9632 24.2241 15.996 24.2896 16.0299 24.357C16.3584 24.0297 16.6869 23.7023 17.0254 23.365C16.9925 23.2996 16.9597 23.2341 16.9258 23.1666ZM45.0986 28.1267C44.9508 28.6669 44.9508 28.6669 44.7999 29.2179C44.9313 29.2507 45.0627 29.2834 45.1981 29.3171C45.2485 29.1747 45.2981 29.0321 45.3475 28.8893C45.3752 28.8099 45.4029 28.7305 45.4315 28.6487C45.5107 28.4156 45.5107 28.4156 45.4968 28.1267C45.3654 28.1267 45.234 28.1267 45.0986 28.1267Z" fill="#7F5EA3"/>
<path d="M36.3724 16.9014C36.581 17.0232 36.7542 17.1548 36.9359 17.3137C37.0067 17.3748 37.0776 17.436 37.1506 17.4989C37.6466 17.9592 37.9867 18.3711 38.0582 19.0668C38.0834 19.782 37.9634 20.2172 37.4881 20.7745C37.3503 20.9121 37.3503 20.9121 37.2097 21.0524C37.1188 21.1448 37.028 21.2373 36.9344 21.3325C36.429 21.7524 35.9293 21.9407 35.2681 21.9095C34.3634 21.7778 33.7176 21.0567 33.153 20.389C32.8641 19.8304 32.8498 19.1896 33.0118 18.5859C33.3194 17.8875 33.92 17.3605 34.5218 16.9107C35.118 16.7393 35.7804 16.6887 36.3724 16.9014Z" fill="#7F5EA3"/>
<path d="M19.1556 0.0141493C19.2993 0.0137347 19.4429 0.013191 19.5866 0.0125303C19.9791 0.011102 20.3716 0.0115158 20.7641 0.0122493C21.1883 0.0127198 21.6125 0.0114766 22.0367 0.0104619C22.8669 0.00875852 23.6972 0.00867317 24.5274 0.00919342C25.2024 0.00959483 25.8775 0.00945061 26.5526 0.00892079C26.6969 0.00880942 26.6969 0.00880942 26.8441 0.0086958C27.0395 0.00854387 27.235 0.00839127 27.4304 0.00823799C29.262 0.00687703 31.0936 0.00741544 32.9253 0.00855397C34.5994 0.00953902 36.2734 0.00825588 37.9475 0.00588205C39.6682 0.0034607 41.3888 0.00250974 43.1094 0.00316915C44.0747 0.00351523 45.04 0.00329652 46.0054 0.00155702C46.8272 9.44096e-05 47.649 3.63528e-05 48.4709 0.00176246C48.8898 0.00260516 49.3087 0.00282362 49.7277 0.00130102C50.1119 -7.8172e-05 50.4961 0.000406926 50.8803 0.00231677C51.0836 0.00286269 51.2869 0.00147706 51.4901 0C52.7885 0.0102488 53.8502 0.31009 54.8542 1.14383C54.9247 1.20073 54.9953 1.25764 55.068 1.31627C55.9159 2.07212 56.4686 3.24724 56.5692 4.37404C56.5825 4.66272 56.5897 4.95082 56.594 5.23977C56.5956 5.34513 56.5972 5.45049 56.5988 5.55904C56.6016 5.78064 56.6037 6.00224 56.6053 6.22385C56.6076 6.45015 56.6117 6.67643 56.6175 6.90266C56.626 7.23092 56.6292 7.55887 56.6313 7.88722C56.6348 7.98799 56.6383 8.08875 56.6418 8.19257C56.6376 8.87725 56.6376 8.87725 56.3705 9.18074C55.8585 9.57598 55.8585 9.57598 55.551 9.57598C55.5506 9.51129 55.5503 9.4466 55.5499 9.37995C55.5457 8.70233 55.5388 8.02478 55.5303 7.34721C55.5275 7.09485 55.5254 6.84248 55.524 6.59012C55.5219 6.22586 55.5172 5.8617 55.5121 5.49747C55.5119 5.33015 55.5119 5.33015 55.5117 5.15946C55.49 3.97326 55.1174 2.88521 54.2569 2.03936C53.2815 1.22185 52.2669 1.08502 51.0261 1.09277C50.8831 1.09224 50.7401 1.09154 50.5971 1.09068C50.2069 1.08885 49.8167 1.08946 49.4265 1.0905C49.0046 1.0912 48.5827 1.08961 48.1608 1.08832C47.3354 1.08618 46.5099 1.08618 45.6845 1.08699C45.0133 1.08762 44.3422 1.0875 43.6711 1.08687C43.5754 1.08678 43.4798 1.08669 43.3812 1.08659C43.1869 1.08641 42.9925 1.08623 42.7982 1.08604C40.9773 1.0844 39.1564 1.08526 37.3355 1.08693C35.671 1.08839 34.0065 1.08694 32.342 1.08408C30.6312 1.08116 28.9204 1.08007 27.2095 1.08102C27.0159 1.08112 26.8222 1.08122 26.6286 1.08132C26.4857 1.08139 26.4857 1.08139 26.3399 1.08146C25.6699 1.08167 25 1.0807 24.3301 1.07926C23.5131 1.07751 22.6961 1.07753 21.8791 1.07979C21.4626 1.08089 21.0461 1.08121 20.6296 1.07936C20.2477 1.07768 19.8659 1.07833 19.484 1.08077C19.2817 1.08148 19.0795 1.07977 18.8772 1.07795C17.7661 1.08914 16.8185 1.36806 16.0042 2.14747C15.1288 3.08808 14.8206 3.97047 14.8245 5.25572C14.8246 5.32804 14.8246 5.40036 14.8247 5.47487C14.825 5.7161 14.8261 5.95733 14.8271 6.19856C14.8274 6.37199 14.8277 6.54541 14.828 6.71883C14.8285 7.09184 14.8293 7.46484 14.8303 7.83784C14.8316 8.42822 14.8314 9.0186 14.8308 9.60898C14.8307 9.70873 14.8307 9.80848 14.8306 9.91125C14.8303 10.2184 14.83 10.5255 14.8296 10.8327C14.8284 12.1035 14.8282 13.3742 14.8325 14.645C14.8356 15.5725 14.8359 16.4999 14.833 17.4274C14.8316 17.9178 14.8315 18.4082 14.8349 18.8986C14.8381 19.3601 14.8375 19.8215 14.8342 20.2831C14.8336 20.4519 14.8344 20.6208 14.8366 20.7896C14.8483 21.7261 14.7995 22.3853 14.1291 23.1097C13.9389 23.2658 13.9389 23.2658 13.7398 23.2658C13.7352 20.8694 13.7317 18.4729 13.7295 16.0765C13.7285 14.9637 13.7271 13.8509 13.7248 12.7381C13.7228 11.7678 13.7215 10.7975 13.7211 9.82719C13.7208 9.31378 13.7202 8.80037 13.7188 8.28696C13.7174 7.8029 13.717 7.31885 13.7173 6.83478C13.7173 6.65792 13.7169 6.48105 13.7161 6.30419C13.7081 4.37616 13.8643 2.72174 15.2813 1.26163C16.4449 0.253362 17.657 0.00707105 19.1556 0.0141493Z" fill="#AA8F85"/>
<path d="M56.5465 14.7345C56.5535 17.199 56.5588 19.6635 56.562 22.1281C56.5636 23.2725 56.5657 24.4169 56.5691 25.5612C56.5721 26.5589 56.574 27.5566 56.5746 28.5543C56.575 29.0824 56.5759 29.6104 56.5781 30.1385C56.5802 30.636 56.5808 31.1336 56.5803 31.6312C56.5804 31.8132 56.581 31.9953 56.5821 32.1774C56.5925 33.9015 56.3396 35.3262 55.1054 36.6255C54.1675 37.4878 53.0461 37.9592 51.7711 37.9607C51.6513 37.9611 51.5314 37.9615 51.4078 37.9619C51.2108 37.9617 51.2108 37.9617 51.0097 37.9616C50.8685 37.9619 50.7273 37.9622 50.586 37.9625C50.1979 37.9633 49.8097 37.9635 49.4216 37.9636C49.0029 37.9637 48.5843 37.9645 48.1656 37.9652C47.2501 37.9665 46.3346 37.9671 45.4191 37.9675C44.8472 37.9678 44.2754 37.9682 43.7036 37.9687C42.1198 37.9699 40.5361 37.9709 38.9524 37.9712C38.851 37.9713 38.7497 37.9713 38.6453 37.9713C38.5437 37.9713 38.4421 37.9714 38.3374 37.9714C38.1315 37.9714 37.9256 37.9715 37.7198 37.9715C37.5666 37.9715 37.5666 37.9715 37.4103 37.9716C35.7564 37.972 34.1025 37.9737 32.4486 37.976C30.7499 37.9784 29.0513 37.9796 27.3526 37.9797C26.3991 37.9798 25.4456 37.9804 24.4922 37.9822C23.6801 37.9837 22.868 37.9842 22.0559 37.9834C21.6418 37.983 21.2278 37.9831 20.8137 37.9845C20.434 37.9858 20.0543 37.9856 19.6746 37.9844C19.4735 37.9841 19.2724 37.9853 19.0713 37.9866C17.6013 37.9787 16.2019 37.6234 15.1336 36.5589C13.8272 34.9895 13.6974 33.3763 13.6811 31.4056C13.6788 31.2109 13.6747 31.0162 13.6689 30.8215C13.6604 30.5372 13.6571 30.2533 13.6551 29.9689C13.6516 29.8824 13.6481 29.7959 13.6445 29.7068C13.6472 29.3333 13.656 29.1105 13.9159 28.8284C14.4398 28.4243 14.4398 28.4243 14.7354 28.4243C14.736 28.4838 14.7365 28.5433 14.7371 28.6046C14.7436 29.2291 14.752 29.8536 14.7615 30.4781C14.7648 30.7105 14.7676 30.943 14.7699 31.1754C14.7732 31.5114 14.7784 31.8472 14.784 32.1831C14.7846 32.2855 14.7853 32.3878 14.7859 32.4933C14.8101 33.7119 15.0676 34.8539 15.9187 35.7687C16.9584 36.7274 18.0239 36.8863 19.3977 36.8823C19.5389 36.8826 19.68 36.883 19.8212 36.8835C20.2081 36.8845 20.5951 36.8843 20.982 36.8839C21.3997 36.8836 21.8174 36.8845 22.2351 36.8852C23.0531 36.8865 23.871 36.8867 24.689 36.8865C25.354 36.8863 26.019 36.8864 26.6839 36.8869C26.7786 36.8869 26.8733 36.887 26.9708 36.8871C27.1631 36.8872 27.3554 36.8873 27.5477 36.8874C29.3511 36.8885 31.1546 36.8883 32.958 36.8877C34.6072 36.8872 36.2564 36.8883 37.9056 36.8902C39.5995 36.8921 41.2935 36.8929 42.9874 36.8925C43.9382 36.8923 44.889 36.8926 45.8398 36.894C46.6493 36.8952 47.4588 36.8953 48.2683 36.8941C48.6812 36.8935 49.094 36.8934 49.5068 36.8946C49.8852 36.8957 50.2635 36.8954 50.6418 36.894C50.8427 36.8936 51.0435 36.8947 51.2443 36.8958C52.4947 36.8884 53.4555 36.6233 54.3763 35.7579C55.1723 34.9177 55.4653 34.0939 55.4619 32.9474C55.4618 32.8743 55.4617 32.8013 55.4617 32.726C55.4613 32.4817 55.4603 32.2375 55.4593 31.9932C55.4589 31.8178 55.4586 31.6424 55.4584 31.4671C55.4578 31.0896 55.457 30.7121 55.4561 30.3346C55.4548 29.7371 55.455 29.1397 55.4555 28.5422C55.4556 28.4413 55.4557 28.3404 55.4558 28.2365C55.4561 27.9257 55.4564 27.615 55.4567 27.3042C55.458 26.018 55.4582 24.7317 55.4539 23.4455C55.4508 22.5071 55.4504 21.5687 55.4534 20.6303C55.4548 20.134 55.4549 19.6378 55.4514 19.1415C55.4483 18.6743 55.4488 18.2073 55.4522 17.7401C55.4528 17.5692 55.452 17.3983 55.4497 17.2274C55.4381 16.286 55.4822 15.6177 56.1572 14.8898C56.3474 14.7345 56.3474 14.7345 56.5465 14.7345Z" fill="#BEA49A"/>
<path d="M151.021 10.8007C152.499 10.8007 153.977 10.8007 155.5 10.8007C155.5 15.0237 155.5 19.2467 155.5 23.5977C155.435 23.5977 155.369 23.5977 155.301 23.5977C155.254 23.5077 155.207 23.4177 155.158 23.3249C154.851 22.8494 154.335 22.7394 153.808 22.6057C153.365 22.5537 152.928 22.5527 152.482 22.5564C152.352 22.5559 152.222 22.5554 152.088 22.5549C151.728 22.5536 151.369 22.5547 151.009 22.5562C150.617 22.5574 150.226 22.5563 149.834 22.5555C149.148 22.5544 148.461 22.5547 147.775 22.5561C146.755 22.558 145.734 22.5577 144.714 22.5569C142.997 22.5556 141.28 22.5561 139.564 22.5575C137.219 22.5594 134.875 22.5588 132.53 22.5574C131.438 22.5568 130.346 22.5563 129.253 22.5559C129.089 22.5558 129.089 22.5558 128.922 22.5557C126.32 22.5546 123.717 22.5548 121.115 22.5552C120.944 22.5552 120.944 22.5552 120.77 22.5552C119.038 22.5555 117.306 22.5558 115.574 22.5561C113.727 22.5564 111.88 22.5568 110.033 22.557C109.863 22.557 109.863 22.557 109.688 22.5571C107.09 22.5574 104.493 22.5574 101.895 22.5563C101.731 22.5563 101.731 22.5563 101.564 22.5562C100.474 22.5557 99.384 22.5552 98.2942 22.5546C95.9523 22.5532 93.6104 22.553 91.2685 22.555C89.5616 22.5564 87.8547 22.5564 86.1478 22.5551C85.1335 22.5543 84.1191 22.5547 83.1048 22.5567C82.4274 22.5578 81.7501 22.5576 81.0727 22.5562C80.6866 22.5555 80.3006 22.5553 79.9145 22.557C79.4986 22.5587 79.0827 22.5574 78.6668 22.5558C78.5471 22.5568 78.4273 22.5578 78.304 22.5588C77.5341 22.5524 76.7507 22.4834 76.168 21.9291C75.764 21.4544 75.6083 20.9191 75.4619 20.3241C75.426 20.4226 75.3901 20.5212 75.3531 20.6227C74.9439 21.5906 74.9439 21.5906 74.4818 21.7935C73.9306 21.9162 73.3653 21.8791 72.8048 21.8597C72.6223 21.8586 72.4399 21.8582 72.2574 21.8583C71.7784 21.8572 71.3 21.848 70.8212 21.8369C70.1467 21.8226 69.472 21.8192 68.7974 21.8147C68.4385 21.8124 68.0799 21.8069 67.7211 21.7989C67.5567 21.7963 67.3922 21.7938 67.2278 21.7912C67.1175 21.7877 67.1175 21.7877 67.005 21.7842C66.4898 21.7785 66.1537 21.8739 65.706 22.1097C65.5584 22.3116 65.5584 22.3116 65.5069 22.5065C65.4411 22.5065 65.3754 22.5065 65.3078 22.5065C65.3008 21.6363 65.2955 20.7661 65.2923 19.8959C65.2907 19.4917 65.2886 19.0875 65.2852 18.6833C65.2819 18.2923 65.2802 17.9012 65.2794 17.5101C65.2789 17.3619 65.2778 17.2137 65.2762 17.0656C65.2584 15.381 65.5374 13.8773 66.7182 12.6038C67.9514 11.3492 69.2794 10.8697 71.0168 10.8505C71.1976 10.8498 71.3784 10.8497 71.5593 10.8502C71.8344 10.8503 72.1092 10.8461 72.3842 10.8418C74.0904 10.8307 74.0904 10.8307 74.8646 11.3959C74.7332 11.2322 74.6018 11.0685 74.4664 10.8999C75.8133 10.8999 77.1602 10.8999 78.548 10.8999C78.548 13.617 78.548 16.3342 78.548 19.1336C86.071 19.1336 93.594 19.1336 101.345 19.1336C101.537 15.0159 101.537 15.0159 100.748 11.2967C100.498 11.1758 100.498 11.1758 100.25 11.0983C100.217 11.0328 100.184 10.9673 100.15 10.8999C101.629 10.8999 103.107 10.8999 104.63 10.8999C104.63 13.617 104.63 16.3342 104.63 19.1336C112.12 19.1336 119.611 19.1336 127.328 19.1336C127.535 15.2233 127.535 15.2233 126.83 11.4951C126.526 11.1957 126.526 11.1957 126.233 10.9991C126.233 10.9664 126.233 10.9336 126.233 10.8999C127.711 10.8999 129.189 10.8999 130.712 10.8999C130.712 13.617 130.712 16.3342 130.712 19.1336C137.775 19.1336 144.839 19.1336 152.116 19.1336C152.329 15.1725 152.329 15.1725 151.618 11.3959C151.313 11.1488 151.313 11.1488 151.021 10.9991C151.021 10.9336 151.021 10.8681 151.021 10.8007ZM74.9641 11.4951C75.0637 11.6935 75.0637 11.6935 75.0637 11.6935L74.9641 11.4951ZM69.1066 14.5835C69.0525 14.6814 69.0525 14.6814 68.9973 14.7812C68.9406 14.8798 68.9406 14.8798 68.8826 14.9803C68.6778 15.3991 68.6795 15.7752 68.6827 16.23C68.6828 16.2961 68.6829 16.3621 68.683 16.4301C68.6836 16.6761 68.685 16.9222 68.6862 17.1682C68.6883 17.7186 68.6903 18.269 68.6925 18.836C70.335 18.836 71.9776 18.836 73.67 18.836C73.67 17.1992 73.67 15.5624 73.67 13.8759C73.0951 13.8657 72.5202 13.8555 71.9279 13.8449C71.748 13.8404 71.5682 13.8359 71.3829 13.8313C70.4367 13.8172 69.7598 13.829 69.1066 14.5835Z" fill="#7F5EA3"/>
<path d="M105.414 23.9364C105.739 24.2781 105.921 24.6065 105.948 25.0803C105.894 25.5422 105.686 25.9327 105.343 26.244C104.966 26.4743 104.567 26.4855 104.132 26.4746C103.656 26.3166 103.42 26.0883 103.137 25.6809C102.977 25.3633 103.001 25.0344 103.037 24.6889C103.207 24.2249 103.416 23.9641 103.833 23.6969C104.349 23.4971 104.975 23.6072 105.414 23.9364Z" fill="#7F5EA3"/>
<path d="M154.207 6.3366C154.537 6.54494 154.827 6.77868 155.003 7.13021C155.043 7.60438 155.058 8.05978 154.904 8.51284C154.556 8.86951 154.181 9.09079 153.678 9.13401C153.107 9.10038 152.806 8.92827 152.415 8.51904C152.162 8.0991 152.147 7.70789 152.216 7.22942C152.658 6.38027 153.286 6.08457 154.207 6.3366Z" fill="#7F5EA3"/>
<path d="M129.618 23.7961C129.923 24.0552 130.194 24.3804 130.235 24.787C130.248 25.4202 130.149 25.7336 129.705 26.2018C129.313 26.4392 128.98 26.5064 128.523 26.4746C128.117 26.3553 127.821 26.1753 127.527 25.8731C127.368 25.4076 127.343 24.9753 127.428 24.4905C127.645 24.0582 127.92 23.8452 128.355 23.6411C128.816 23.5866 129.189 23.6106 129.618 23.7961Z" fill="#7F5EA3"/>
<path d="M102.506 23.9352C102.888 24.3882 102.968 24.6865 102.96 25.2593C102.919 25.6836 102.712 25.9019 102.428 26.2018C102.04 26.4373 101.698 26.4953 101.246 26.4746C100.824 26.3239 100.539 26.1208 100.25 25.7801C100.115 25.3766 100.098 25.0117 100.151 24.5897C100.396 24.1192 100.663 23.8022 101.165 23.6163C101.637 23.5849 102.132 23.6203 102.506 23.9352Z" fill="#7F5EA3"/>
<path d="M145.445 29.2522C146.891 29.2522 148.336 29.2522 149.826 29.2522C149.826 29.4159 149.826 29.5796 149.826 29.7482C149.464 29.7482 149.103 29.7482 148.73 29.7482C148.73 30.894 148.73 32.0398 148.73 33.2203C149.88 33.2203 151.03 33.2203 152.215 33.2203C152.215 32.0745 152.215 30.9287 152.215 29.7482C151.853 29.7482 151.492 29.7482 151.12 29.7482C151.12 29.5845 151.12 29.4208 151.12 29.2522C152.565 29.2522 154.011 29.2522 155.5 29.2522C155.5 29.4159 155.5 29.5796 155.5 29.7482C155.139 29.7482 154.777 29.7482 154.405 29.7482C154.405 32.3017 154.405 34.8551 154.405 37.4859C154.701 37.4859 154.996 37.4859 155.301 37.4859C155.5 37.6843 155.5 37.6843 155.5 37.982C154.054 37.982 152.609 37.982 151.12 37.982C151.12 37.8183 151.12 37.6546 151.12 37.4859C151.481 37.4859 151.842 37.4859 152.215 37.4859C152.215 36.242 152.215 34.998 152.215 33.7163C151.065 33.7163 149.915 33.7163 148.73 33.7163C148.73 34.9603 148.73 36.2043 148.73 37.4859C149.026 37.4859 149.322 37.4859 149.626 37.4859C149.826 37.6843 149.826 37.6843 149.826 37.982C148.38 37.982 146.935 37.982 145.445 37.982C145.445 37.8183 145.445 37.6546 145.445 37.4859C145.807 37.4859 146.168 37.4859 146.54 37.4859C146.54 34.9325 146.54 32.379 146.54 29.7482C146.179 29.7482 145.818 29.7482 145.445 29.7482C145.445 29.5845 145.445 29.4208 145.445 29.2522Z" fill="#E1CABF"/>
<path d="M108.015 29.2522C108.749 29.243 109.482 29.2359 110.216 29.2316C110.557 29.2296 110.898 29.2268 111.239 29.2223C111.632 29.2171 112.025 29.2152 112.419 29.2135C112.539 29.2114 112.66 29.2094 112.784 29.2072C113.616 29.207 114.462 29.2754 115.109 29.8488C115.51 30.276 115.66 30.58 115.705 31.1618C115.669 31.7054 115.578 32.1232 115.191 32.5251C114.994 32.6973 114.791 32.8603 114.585 33.0219C114.486 33.1201 114.486 33.1201 114.386 33.2203C114.442 33.2349 114.499 33.2494 114.557 33.2644C115.286 33.4753 115.768 33.7741 116.172 34.4231C116.415 35.1145 116.376 35.8669 116.078 36.5311C115.692 37.2067 115.123 37.5693 114.401 37.8289C113.68 38.0102 112.963 37.9949 112.224 37.9916C112.104 37.9915 111.983 37.9914 111.859 37.9912C111.475 37.9907 111.092 37.9894 110.709 37.9882C110.448 37.9877 110.188 37.9872 109.927 37.9868C109.289 37.9857 108.652 37.9841 108.015 37.982C108.015 37.8183 108.015 37.6546 108.015 37.4859C108.376 37.4859 108.737 37.4859 109.11 37.4859C109.11 34.9325 109.11 32.379 109.11 29.7482C108.748 29.7482 108.387 29.7482 108.015 29.7482C108.015 29.5845 108.015 29.4208 108.015 29.2522ZM111.2 29.7482C111.2 30.8285 111.2 31.9088 111.2 33.0219C112.22 33.0487 112.22 33.0487 113.073 32.6065C113.439 32.1372 113.513 31.713 113.477 31.1308C113.419 30.6819 113.297 30.3918 112.992 30.0458C112.406 29.6376 112.406 29.6376 111.2 29.7482ZM111.2 33.5179C111.2 34.8273 111.2 36.1368 111.2 37.4859C112.537 37.5484 112.537 37.5484 113.577 36.9155C114.006 36.2624 114.078 35.572 113.988 34.8075C113.832 34.329 113.587 33.9351 113.191 33.6171C112.561 33.4077 111.865 33.5179 111.2 33.5179Z" fill="#B69C92"/>
<path d="M65.3076 29.2522C67.7079 29.0463 67.7079 29.0463 68.2801 29.4789C68.5682 29.7664 68.7759 30.099 68.991 30.4426C69.142 30.6306 69.2954 30.8168 69.4514 31.0006C69.5235 31.0899 69.5956 31.1792 69.6699 31.2711C69.8847 31.5311 70.1073 31.781 70.3349 32.0299C70.8038 32.5431 71.2394 33.0785 71.6788 33.6171C72.0402 34.0427 72.4016 34.4682 72.7739 34.9067C72.8068 33.2044 72.8396 31.5021 72.8734 29.7482C72.4792 29.7482 72.085 29.7482 71.6788 29.7482C71.6788 29.5845 71.6788 29.4209 71.6788 29.2522C72.6972 29.2522 73.7156 29.2522 74.7649 29.2522C74.7649 29.4159 74.7649 29.5796 74.7649 29.7482C74.3707 29.7482 73.9765 29.7482 73.5703 29.7482C73.5703 32.4326 73.5703 35.117 73.5703 37.8828C73.209 38.0028 72.9545 38.02 72.5748 37.982C72.3205 37.7816 72.3205 37.7816 72.0895 37.5046C71.9623 37.3549 71.9623 37.3549 71.8324 37.2023C71.7479 37.0986 71.6635 36.9948 71.5793 36.8907C71.5029 36.7982 71.4266 36.7056 71.3479 36.6102C71.1993 36.4292 71.0512 36.2477 70.9038 36.0657C70.6877 35.8048 70.4641 35.5536 70.2354 35.3035C69.8455 34.8772 69.48 34.4352 69.1162 33.9868C68.8313 33.6439 68.532 33.3162 68.228 32.9901C67.902 32.6174 67.6032 32.2217 67.2986 31.8315C67.2658 33.6974 67.2329 35.5634 67.1991 37.486C67.5276 37.486 67.8561 37.486 68.1946 37.486C68.3937 37.6844 68.3937 37.6844 68.3937 37.982C67.3753 37.982 66.3569 37.982 65.3076 37.982C65.3076 37.8183 65.3076 37.6546 65.3076 37.486C65.7018 37.486 66.0961 37.486 66.5022 37.486C66.5022 34.9325 66.5022 32.379 66.5022 29.7482C66.108 29.7482 65.7138 29.7482 65.3076 29.7482C65.3076 29.5845 65.3076 29.4209 65.3076 29.2522Z" fill="#87695F"/>
<path d="M90.8643 29.2425C91.1722 29.2457 91.48 29.249 91.7879 29.2522C92.2251 30.1663 92.6172 31.0928 92.9947 32.0326C93.1561 32.4343 93.3185 32.8356 93.481 33.2369C93.5139 33.3181 93.5468 33.3992 93.5806 33.4828C93.8042 34.0332 94.032 34.5816 94.2634 35.1287C94.3089 35.2362 94.3089 35.2362 94.3552 35.3458C94.4989 35.6851 94.6433 36.0241 94.7882 36.3629C94.839 36.4822 94.8897 36.6015 94.942 36.7245C94.9867 36.8289 95.0314 36.9333 95.0775 37.0409C95.1726 37.2875 95.1726 37.2875 95.1726 37.4859C95.4026 37.4859 95.6325 37.4859 95.8695 37.4859C95.9023 37.6496 95.9352 37.8133 95.969 37.9819C94.6549 37.9819 93.3409 37.9819 91.987 37.9819C91.987 37.8183 91.987 37.6546 91.987 37.4859C92.4305 37.4368 92.4305 37.4368 92.8829 37.3867C92.8558 37.3192 92.8287 37.2516 92.8007 37.182C92.6783 36.8764 92.5566 36.5704 92.435 36.2645C92.3922 36.1582 92.3495 36.0518 92.3055 35.9423C92.2651 35.8403 92.2246 35.7383 92.183 35.6333C92.1454 35.5392 92.1079 35.4452 92.0692 35.3483C91.987 35.1051 91.987 35.1051 91.987 34.8075C91.0343 34.8075 90.0816 34.8075 89.1 34.8075C89.0672 35.0039 89.0343 35.2003 89.0005 35.4027C88.9441 35.5756 88.8827 35.747 88.8165 35.9165C88.7809 36.0086 88.7453 36.1007 88.7086 36.1955C88.6715 36.2899 88.6343 36.3843 88.5961 36.4815C88.5585 36.5782 88.521 36.6749 88.4823 36.7745C88.3901 37.0118 88.2971 37.2489 88.2041 37.4859C88.5326 37.4859 88.8611 37.4859 89.1996 37.4859C89.2324 37.6496 89.2653 37.8133 89.2991 37.9819C88.3793 37.9819 87.4594 37.9819 86.5117 37.9819C86.5117 37.8183 86.5117 37.6546 86.5117 37.4859C86.9552 37.4368 86.9552 37.4368 87.4077 37.3867C87.6609 36.7358 87.9139 36.0848 88.1667 35.4337C88.2046 35.3362 88.2425 35.2388 88.2815 35.1383C88.6977 34.0663 89.1122 32.9938 89.5192 31.9182C89.5516 31.8328 89.5839 31.7474 89.6172 31.6594C89.7703 31.2545 89.923 30.8494 90.0752 30.4441C90.1297 30.2996 90.1841 30.155 90.2386 30.0105C90.2632 29.9446 90.2878 29.8787 90.3132 29.8108C90.5232 29.2547 90.5232 29.2547 90.8643 29.2425ZM90.4937 31.2362C90.3671 31.5503 90.2406 31.8645 90.1142 32.1786C90.0787 32.2666 90.0432 32.3546 90.0067 32.4452C89.9029 32.7033 89.7999 32.9617 89.6973 33.2203C89.6514 33.335 89.6514 33.335 89.6046 33.452C89.4872 33.7525 89.3987 33.986 89.3987 34.3115C90.1543 34.3115 90.9099 34.3115 91.6883 34.3115C91.6074 33.908 91.5095 33.5824 91.3613 33.2028C91.3167 33.088 91.2721 32.9733 91.2262 32.855C91.1795 32.7362 91.1329 32.6173 91.0848 32.4948C91.0378 32.3741 90.9908 32.2533 90.9423 32.1288C90.8263 31.8312 90.71 31.5336 90.5933 31.2362C90.5604 31.2362 90.5276 31.2362 90.4937 31.2362Z" fill="#9F8379"/>
<path d="M128.722 29.2522C130.167 29.2522 131.613 29.2522 133.102 29.2522C133.102 29.4159 133.102 29.5796 133.102 29.7482C132.708 29.7482 132.313 29.7482 131.907 29.7482C131.907 32.3017 131.907 34.8551 131.907 37.4859C132.236 37.4859 132.564 37.4859 132.903 37.4859C133.102 37.6843 133.102 37.6843 133.102 37.982C131.656 37.982 130.211 37.982 128.722 37.982C128.722 37.8183 128.722 37.6546 128.722 37.4859C129.083 37.4859 129.444 37.4859 129.817 37.4859C129.817 34.9325 129.817 32.379 129.817 29.7482C129.455 29.7482 129.094 29.7482 128.722 29.7482C128.722 29.5845 128.722 29.4208 128.722 29.2522Z" fill="#CBB3A8"/>
</svg>
