<svg width="90" height="86" viewBox="0 0 90 86" fill="none" xmlns="http://www.w3.org/2000/svg">
<path d="M24.5 46.5625H57.75V66.75V71.5C57.75 81 53 85.75 43.5 85.75H15C5.5 85.75 0.75 81 0.75 71.5V14.5C0.75 5 5.5 0.25 15 0.25H43.5C53 0.25 57.75 5 57.75 14.5V19.25V39.4375H24.5C22.5335 39.4375 20.9375 41.0335 20.9375 43C20.9375 44.9665 22.5335 46.5625 24.5 46.5625ZM89.5371 41.6368C89.3566 41.1998 89.0954 40.8055 88.7676 40.4777L74.5176 26.2277C73.1259 24.836 70.8695 24.836 69.4777 26.2277C68.086 27.6195 68.086 29.8757 69.4777 31.2675L77.6479 39.4375H57.75V46.5625H77.6479L69.4777 54.7325C68.086 56.1243 68.086 58.3805 69.4777 59.7723C70.1712 60.4658 71.0834 60.8173 71.9954 60.8173C72.9074 60.8173 73.8192 60.4705 74.5127 59.7723L88.7627 45.5223C89.0905 45.1945 89.3517 44.8002 89.5322 44.3632C89.8979 43.4892 89.8981 42.5108 89.5371 41.6368Z" fill="#EC003F"/>
</svg>
