<svg width="20" height="18" viewBox="0 0 20 18" fill="none" xmlns="http://www.w3.org/2000/svg">
<path d="M5.5 9.75H12.5V14V15C12.5 17 11.5 18 9.5 18H3.5C1.5 18 0.5 17 0.5 15V3C0.5 1 1.5 0 3.5 0H9.5C11.5 0 12.5 1 12.5 3V4V8.25H5.5C5.086 8.25 4.75 8.586 4.75 9C4.75 9.414 5.086 9.75 5.5 9.75ZM19.192 8.71301C19.154 8.62101 19.099 8.53799 19.03 8.46899L16.03 5.46899C15.737 5.17599 15.262 5.17599 14.969 5.46899C14.676 5.76199 14.676 6.237 14.969 6.53L16.689 8.25H12.5V9.75H16.689L14.969 11.47C14.676 11.763 14.676 12.238 14.969 12.531C15.115 12.677 15.307 12.751 15.499 12.751C15.691 12.751 15.883 12.678 16.029 12.531L19.029 9.53101C19.098 9.46201 19.153 9.37899 19.191 9.28699C19.268 9.10299 19.268 8.89701 19.192 8.71301Z" fill="#392A4B"/>
</svg>
