<svg width="14" height="8" viewBox="0 0 14 8" fill="none" xmlns="http://www.w3.org/2000/svg">
<path d="M4.91017 7.19221V4.56546H13.0974C13.2485 4.56546 13.3933 4.50548 13.5001 4.3987C13.6068 4.29192 13.6668 4.14709 13.6668 3.99608C13.6668 3.84507 13.6068 3.70025 13.5001 3.59347C13.3933 3.48669 13.2485 3.4267 13.0974 3.4267H4.91017V0.807547C4.91102 0.735912 4.89028 0.66568 4.85065 0.605995C4.81103 0.54631 4.75435 0.499934 4.68801 0.472904C4.62166 0.445875 4.54872 0.439442 4.47866 0.454445C4.40861 0.469447 4.3447 0.505189 4.29524 0.557019L0.440038 3.74555C0.406296 3.77876 0.3795 3.81835 0.361209 3.86201C0.342917 3.90567 0.333496 3.95254 0.333496 3.99988C0.333496 4.04722 0.342917 4.09408 0.361209 4.13775C0.3795 4.18141 0.406296 4.221 0.440038 4.2542L4.29524 7.44274C4.3447 7.49457 4.40861 7.53031 4.47866 7.54531C4.54872 7.56031 4.62166 7.55388 4.68801 7.52685C4.75435 7.49982 4.81103 7.45345 4.85065 7.39376C4.89028 7.33407 4.91102 7.26384 4.91017 7.19221Z" fill="#404040"/>
</svg>
