<svg width="14" height="8" viewBox="0 0 14 8" fill="none" xmlns="http://www.w3.org/2000/svg">
<path d="M9.08991 0.80773V3.43447H0.902634C0.751624 3.43447 0.6068 3.49446 0.50002 3.60124C0.393241 3.70802 0.333252 3.85285 0.333252 4.00386C0.333252 4.15487 0.393241 4.29969 0.50002 4.40647C0.6068 4.51325 0.751624 4.57324 0.902634 4.57324H9.08991V7.19239C9.08907 7.26403 9.10981 7.33426 9.14943 7.39394C9.18905 7.45363 9.24573 7.5 9.31207 7.52703C9.37842 7.55406 9.45137 7.5605 9.52142 7.54549C9.59147 7.53049 9.65538 7.49475 9.70484 7.44292L13.56 4.25438C13.5938 4.22118 13.6206 4.18159 13.6389 4.13793C13.6572 4.09427 13.6666 4.0474 13.6666 4.00006C13.6666 3.95272 13.6572 3.90585 13.6389 3.86219C13.6206 3.81853 13.5938 3.77894 13.56 3.74574L9.70484 0.557202C9.65538 0.505372 9.59147 0.46963 9.52142 0.454628C9.45137 0.439626 9.37842 0.446057 9.31207 0.473087C9.24573 0.500117 9.18905 0.546493 9.14943 0.606178C9.10981 0.665864 9.08907 0.736094 9.08991 0.80773Z" fill="#404040"/>
</svg>
