<svg width="24" height="24" viewBox="0 0 24 24" fill="none" xmlns="http://www.w3.org/2000/svg">
<path d="M5.125 23.25H18.875C21.2913 23.25 23.25 21.2913 23.25 18.875V5.125C23.25 2.70875 21.2913 0.75 18.875 0.75H5.125C2.70875 0.75 0.75 2.70875 0.75 5.125V18.875C0.75 21.2913 2.70875 23.25 5.125 23.25Z" fill="#7F5EA3"/>
<path d="M19.1559 16.4006L16.2734 14.4938C15.9215 14.2806 15.4815 14.2769 15.1259 14.4831C15.1259 14.4831 15.1259 14.4831 13.8896 15.2038C13.724 15.3 13.5646 15.3181 13.4359 15.2944C13.2721 15.2644 13.1596 15.175 13.1521 15.1688C12.4727 14.6706 11.679 14.0113 10.8327 13.1656C9.98711 12.32 9.32773 11.5263 8.82961 10.8463C8.82399 10.8381 8.73398 10.7256 8.70398 10.5625C8.68086 10.4338 8.69836 10.275 8.79461 10.1088C9.51523 8.87251 9.51523 8.87251 9.51523 8.87251C9.72211 8.51689 9.71773 8.07626 9.50461 7.72501L7.59774 4.84251C7.36149 4.48564 6.87836 4.39126 6.52649 4.63501C6.52649 4.63501 5.62336 5.25314 5.32524 5.46314C4.84774 5.79939 4.69399 6.31064 4.69336 7.02314C4.69211 8.02564 5.55586 11.1663 9.19398 14.8044C12.8327 18.4431 15.9727 19.3063 16.9752 19.305C17.6877 19.3044 18.199 19.15 18.5352 18.6731C18.7452 18.375 19.3634 17.4719 19.3634 17.4719C19.6071 17.12 19.5134 16.6369 19.1559 16.4006Z" fill="white"/>
</svg>
