<svg width="14" height="14" viewBox="0 0 14 14" fill="none" xmlns="http://www.w3.org/2000/svg">
<path d="M6.37964 0.379578C9.69322 0.379578 12.3794 3.06605 12.3796 6.37958C12.3796 7.83224 11.8627 9.16378 11.0037 10.2018L13.447 12.6462C13.6683 12.8675 13.6683 13.2257 13.447 13.447C13.2257 13.6682 12.8675 13.6682 12.6462 13.447L10.2019 11.0036C9.16385 11.8626 7.83228 12.3796 6.37964 12.3796C3.06613 12.3793 0.379639 9.69314 0.379639 6.37958C0.379846 3.06619 3.06625 0.379809 6.37964 0.379578ZM6.37964 1.49188C3.68041 1.49211 1.49215 3.68034 1.49194 6.37958C1.49194 9.07899 3.68028 11.268 6.37964 11.2682C9.07919 11.2682 11.2683 9.07913 11.2683 6.37958C11.2681 3.6802 9.07907 1.49188 6.37964 1.49188Z" fill="#404040"/>
</svg>
