<svg width="33" height="32" viewBox="0 0 33 32" fill="none" xmlns="http://www.w3.org/2000/svg">
<g clip-path="url(#clip0_97_2684)">
<path d="M31.5748 14.15L18.4248 0.95C17.7748 0.35 16.9748 0 16.0748 0C15.1748 0 14.3748 0.35 13.7248 0.95L0.574792 14.15C0.374792 14.35 0.224792 14.65 0.224792 14.95C0.224792 15.25 0.324792 15.55 0.574792 15.75C0.974792 16.15 1.72479 16.15 2.17479 15.75L15.3248 2.55C15.5248 2.35 15.8248 2.25 16.0748 2.25C16.3748 2.25 16.6248 2.35 16.8248 2.55L30.0248 15.7C30.4248 16.1 31.1748 16.1 31.6248 15.7C31.8248 15.5 31.9748 15.2 31.9748 14.9C31.9248 14.65 31.8248 14.35 31.5748 14.15ZM22.9248 24.5L16.7748 18.35C16.3248 17.9 16.1248 17.25 16.1748 16.6C16.3248 15.45 15.9248 14.3 15.1248 13.45C14.4748 12.8 13.6248 12.4 12.7248 12.35L13.3248 12.95C14.4248 14.05 14.4248 15.9 13.3248 17C12.7748 17.55 12.0748 17.85 11.2748 17.85C10.5248 17.85 9.77479 17.55 9.27479 17L8.67479 16.4C8.72479 17.3 9.12479 18.15 9.77479 18.8C10.6248 19.65 11.7748 20.05 12.9248 19.85C13.0248 19.85 13.1248 19.85 13.1748 19.85C13.7248 19.85 14.2748 20.05 14.6248 20.45L20.8748 26.7C21.4748 27.3 22.4748 27.25 23.0248 26.65C23.5748 26.05 23.5248 25.1 22.9248 24.5ZM22.1748 25.85C22.0748 25.95 21.9248 26 21.7748 26C21.6248 26 21.5248 25.95 21.4248 25.85L20.9748 25.4C20.7748 25.2 20.7748 24.85 20.9748 24.65C21.1748 24.45 21.5248 24.45 21.7248 24.65L22.1748 25.1C22.3748 25.3 22.3748 25.65 22.1748 25.85ZM22.9248 24.5L16.7748 18.35C16.3248 17.9 16.1248 17.25 16.1748 16.6C16.3248 15.45 15.9248 14.3 15.1248 13.45C14.4748 12.8 13.6248 12.4 12.7248 12.35L13.3248 12.95C14.4248 14.05 14.4248 15.9 13.3248 17C12.7748 17.55 12.0748 17.85 11.2748 17.85C10.5248 17.85 9.77479 17.55 9.27479 17L8.67479 16.4C8.72479 17.3 9.12479 18.15 9.77479 18.8C10.6248 19.65 11.7748 20.05 12.9248 19.85C13.0248 19.85 13.1248 19.85 13.1748 19.85C13.7248 19.85 14.2748 20.05 14.6248 20.45L20.8748 26.7C21.4748 27.3 22.4748 27.25 23.0248 26.65C23.5748 26.05 23.5248 25.1 22.9248 24.5ZM22.1748 25.85C22.0748 25.95 21.9248 26 21.7748 26C21.6248 26 21.5248 25.95 21.4248 25.85L20.9748 25.4C20.7748 25.2 20.7748 24.85 20.9748 24.65C21.1748 24.45 21.5248 24.45 21.7248 24.65L22.1748 25.1C22.3748 25.3 22.3748 25.65 22.1748 25.85ZM22.9248 24.5L16.7748 18.35C16.3248 17.9 16.1248 17.25 16.1748 16.6C16.3248 15.45 15.9248 14.3 15.1248 13.45C14.4748 12.8 13.6248 12.4 12.7248 12.35L13.3248 12.95C14.4248 14.05 14.4248 15.9 13.3248 17C12.7748 17.55 12.0748 17.85 11.2748 17.85C10.5248 17.85 9.77479 17.55 9.27479 17L8.67479 16.4C8.72479 17.3 9.12479 18.15 9.77479 18.8C10.6248 19.65 11.7748 20.05 12.9248 19.85C13.0248 19.85 13.1248 19.85 13.1748 19.85C13.7248 19.85 14.2748 20.05 14.6248 20.45L20.8748 26.7C21.4748 27.3 22.4748 27.25 23.0248 26.65C23.5748 26.05 23.5248 25.1 22.9248 24.5ZM22.1748 25.85C22.0748 25.95 21.9248 26 21.7748 26C21.6248 26 21.5248 25.95 21.4248 25.85L20.9748 25.4C20.7748 25.2 20.7748 24.85 20.9748 24.65C21.1748 24.45 21.5248 24.45 21.7248 24.65L22.1748 25.1C22.3748 25.3 22.3748 25.65 22.1748 25.85ZM22.9248 24.5L16.7748 18.35C16.3248 17.9 16.1248 17.25 16.1748 16.6C16.3248 15.45 15.9248 14.3 15.1248 13.45C14.4748 12.8 13.6248 12.4 12.7248 12.35L13.3248 12.95C14.4248 14.05 14.4248 15.9 13.3248 17C12.7748 17.55 12.0748 17.85 11.2748 17.85C10.5248 17.85 9.77479 17.55 9.27479 17L8.67479 16.4C8.72479 17.3 9.12479 18.15 9.77479 18.8C10.6248 19.65 11.7748 20.05 12.9248 19.85C13.0248 19.85 13.1248 19.85 13.1748 19.85C13.7248 19.85 14.2748 20.05 14.6248 20.45L20.8748 26.7C21.4748 27.3 22.4748 27.25 23.0248 26.65C23.5748 26.05 23.5248 25.1 22.9248 24.5ZM22.1748 25.85C22.0748 25.95 21.9248 26 21.7748 26C21.6248 26 21.5248 25.95 21.4248 25.85L20.9748 25.4C20.7748 25.2 20.7748 24.85 20.9748 24.65C21.1748 24.45 21.5248 24.45 21.7248 24.65L22.1748 25.1C22.3748 25.3 22.3748 25.65 22.1748 25.85ZM22.9248 24.5L16.7748 18.35C16.3248 17.9 16.1248 17.25 16.1748 16.6C16.3248 15.45 15.9248 14.3 15.1248 13.45C14.4748 12.8 13.6248 12.4 12.7248 12.35L13.3248 12.95C14.4248 14.05 14.4248 15.9 13.3248 17C12.7748 17.55 12.0748 17.85 11.2748 17.85C10.5248 17.85 9.77479 17.55 9.27479 17L8.67479 16.4C8.72479 17.3 9.12479 18.15 9.77479 18.8C10.6248 19.65 11.7748 20.05 12.9248 19.85C13.0248 19.85 13.1248 19.85 13.1748 19.85C13.7248 19.85 14.2748 20.05 14.6248 20.45L20.8748 26.7C21.4748 27.3 22.4748 27.25 23.0248 26.65C23.5748 26.05 23.5248 25.1 22.9248 24.5ZM22.1748 25.85C22.0748 25.95 21.9248 26 21.7748 26C21.6248 26 21.5248 25.95 21.4248 25.85L20.9748 25.4C20.7748 25.2 20.7748 24.85 20.9748 24.65C21.1748 24.45 21.5248 24.45 21.7248 24.65L22.1748 25.1C22.3748 25.3 22.3748 25.65 22.1748 25.85ZM27.0248 1.25H25.8748C25.2748 1.25 24.7748 1.75 24.7748 2.35V5.7C24.7748 5.75 24.7748 5.75 24.7748 5.8L28.1748 9.2V2.35C28.1748 1.75 27.6748 1.25 27.0248 1.25Z" fill="#B39F91"/>
<path d="M30.3248 30.95H28.9248V16.3C28.9248 16.25 28.9248 16.2 28.9748 16.15L16.0748 3.3L3.22478 16.15C3.22478 16.2 3.27478 16.25 3.27478 16.3V30.95H2.32478C2.02478 30.95 1.77478 31.2 1.77478 31.5C1.82478 31.75 2.07478 32 2.32478 32H30.3248C30.6248 32 30.8748 31.75 30.8748 31.45C30.8748 31.2 30.6248 30.95 30.3248 30.95ZM7.57478 15.8C7.62478 15.35 7.97478 15 8.42478 15C8.62478 15 8.87478 15.1 9.02478 15.25L9.97478 16.2C10.6748 16.9 11.8248 16.9 12.5248 16.2C13.2248 15.5 13.2248 14.35 12.5248 13.65L11.5748 12.7C11.3248 12.45 11.2748 12.1 11.3748 11.8C11.4748 11.5 11.7748 11.3 12.1248 11.25C13.5248 11.15 14.8748 11.65 15.8248 12.65C16.8748 13.7 17.3748 15.2 17.2248 16.7C17.1748 17 17.2748 17.35 17.5248 17.55L23.6748 23.7C24.6748 24.7 24.7248 26.3 23.7748 27.3C23.2748 27.8 22.6248 28.1 21.9248 28.1C21.2248 28.1 20.6248 27.85 20.1248 27.35L13.9248 21.2C13.6748 20.95 13.3748 20.85 13.0748 20.9C11.5748 21.1 10.0748 20.6 9.02478 19.5C8.02478 18.55 7.52478 17.2 7.57478 15.8Z" fill="#B39F91"/>
</g>
<defs>
<clipPath id="clip0_97_2684">
<rect width="32" height="32" fill="white" transform="translate(0.0747681)"/>
</clipPath>
</defs>
</svg>
