<svg width="33" height="32" viewBox="0 0 33 32" fill="none" xmlns="http://www.w3.org/2000/svg">
<g clip-path="url(#clip0_97_2662)">
<path d="M16.722 8.40809C11.5447 8.40809 7.19857 11.0048 5.95571 14.5212H3.2003C2.875 14.5204 2.55274 14.5839 2.25204 14.708C1.95133 14.8321 1.67812 15.0144 1.4481 15.2444C1.21807 15.4744 1.03577 15.7476 0.911662 16.0483C0.787557 16.349 0.724096 16.6713 0.724926 16.9966V18.6449C0.72392 18.9706 0.787215 19.2932 0.91118 19.5943C1.03515 19.8955 1.21734 20.1692 1.44732 20.3997C1.6773 20.6303 1.95053 20.8132 2.25135 20.9379C2.55217 21.0626 2.87465 21.1268 3.2003 21.1266H4.52047C4.50799 20.9951 4.50199 20.8631 4.50249 20.731C4.50249 19.6971 4.91322 18.7055 5.64433 17.9744C6.37544 17.2433 7.36703 16.8325 8.40097 16.8325C8.913 16.8325 9.42003 16.9333 9.8931 17.1292C10.3662 17.3251 10.796 17.6123 11.1581 17.9744C11.5201 18.3364 11.8073 18.7663 12.0032 19.2393C12.1992 19.7124 12.3 20.2194 12.2999 20.7315C12.2999 20.8636 12.2945 20.9976 12.2819 21.127H20.6933C20.6809 20.9956 20.6749 20.8635 20.6754 20.7315C20.6753 20.2195 20.7761 19.7125 20.972 19.2395C21.1679 18.7664 21.455 18.3366 21.817 17.9745C22.1791 17.6125 22.6088 17.3253 23.0819 17.1293C23.5549 16.9334 24.0618 16.8325 24.5738 16.8325C25.0859 16.8325 25.5929 16.9333 26.066 17.1292C26.539 17.3251 26.9689 17.6123 27.3309 17.9744C27.693 18.3364 27.9802 18.7663 28.1761 19.2393C28.372 19.7124 28.4728 20.2194 28.4728 20.7315C28.4728 20.8636 28.4674 20.9976 28.4548 21.127H30.2487C30.5745 21.1273 30.897 21.0632 31.1979 20.9385C31.4988 20.8137 31.7721 20.6308 32.0022 20.4002C32.2322 20.1696 32.4144 19.8958 32.5384 19.5946C32.6624 19.2934 32.7256 18.9706 32.7246 18.6449V16.9966C32.7255 16.6713 32.6621 16.3489 32.5381 16.0481C32.414 15.7474 32.2317 15.4741 32.0017 15.244C31.7716 15.0139 31.4984 14.8316 31.1976 14.7074C30.8969 14.5833 30.5745 14.5199 30.2492 14.5208H27.4938C26.2496 11.0048 21.8989 8.40764 16.7216 8.40764L16.722 8.40809Z" fill="#FBF7F5"/>
<path fill-rule="evenodd" clip-rule="evenodd" d="M11.2283 20.7301C11.2283 21.4802 10.9303 22.1996 10.3999 22.73C9.86953 23.2604 9.15016 23.5583 8.40007 23.5583C7.64998 23.5583 6.9306 23.2604 6.40021 22.73C5.86981 22.1996 5.57184 21.4802 5.57184 20.7301C5.57184 19.98 5.86981 19.2607 6.40021 18.7303C6.9306 18.1999 7.64998 17.9019 8.40007 17.9019C9.15016 17.9019 9.86953 18.1999 10.3999 18.7303C10.9303 19.2607 11.2283 19.98 11.2283 20.7301ZM27.3998 20.7301C27.4045 21.1045 27.3349 21.4761 27.1949 21.8233C27.0549 22.1706 26.8473 22.4866 26.5842 22.753C26.3212 23.0194 26.0078 23.2309 25.6624 23.3753C25.3169 23.5197 24.9462 23.594 24.5718 23.594C24.1974 23.594 23.8267 23.5197 23.4813 23.3753C23.1358 23.2309 22.8225 23.0194 22.5594 22.753C22.2963 22.4866 22.0888 22.1706 21.9488 21.8233C21.8088 21.4761 21.7391 21.1045 21.7438 20.7301C21.7532 19.9863 22.0553 19.276 22.5846 18.7533C23.1139 18.2306 23.8279 17.9375 24.5718 17.9375C25.3157 17.9375 26.0297 18.2306 26.559 18.7533C27.0884 19.276 27.3904 19.9863 27.3998 20.7301Z" fill="#2A1E1E"/>
<path d="M16.7219 8.40596C11.5446 8.40596 7.19848 11.0029 5.9559 14.5189H3.20037C2.87501 14.518 2.55268 14.5814 2.25192 14.7055C1.95117 14.8297 1.67793 15.012 1.44789 15.2421C1.21784 15.4722 1.03553 15.7454 0.911463 16.0462C0.787393 16.347 0.724 16.6693 0.724925 16.9947V18.6491C0.724051 18.9744 0.787489 19.2967 0.911582 19.5975C1.03568 19.8982 1.21797 20.1714 1.44801 20.4015C1.67805 20.6315 1.95129 20.8138 2.25202 20.9379C2.55275 21.062 2.87505 21.1254 3.20037 21.1246H4.52042C4.50784 20.9932 4.50173 20.8612 4.50213 20.7293C4.50213 18.5754 6.24728 16.8302 8.40098 16.8302C10.5547 16.8302 12.2998 18.5754 12.2998 20.7293C12.2998 20.8616 12.2946 20.9953 12.2815 21.1244H13.425L19.5685 8.67359C18.6599 8.49744 17.7058 8.40596 16.7219 8.40596Z" fill="#35231A"/>
<path d="M16.7219 8.40596C13.4072 8.40596 10.4319 9.47259 8.39496 11.1613L19.4531 21.1246H20.6937C20.6812 20.9932 20.6752 20.8612 20.6756 20.7293C20.6756 18.5754 22.4208 16.8302 24.5743 16.8302C26.7282 16.8302 28.4733 18.5754 28.4733 20.7293C28.4733 20.8616 28.4681 20.9953 28.455 21.1244H30.2494C30.5747 21.1253 30.897 21.0618 31.1978 20.9377C31.4985 20.8136 31.7717 20.6313 32.0018 20.4013C32.2318 20.1712 32.4141 19.898 32.5382 19.5973C32.6623 19.2965 32.7257 18.9743 32.7249 18.6489V16.9945C32.7258 16.6691 32.6623 16.3468 32.5383 16.0461C32.4142 15.7453 32.2319 15.4721 32.0019 15.242C31.7718 15.0119 31.4986 14.8296 31.1978 14.7055C30.8971 14.5814 30.5748 14.518 30.2494 14.5189H27.4939C26.2499 11.0029 21.8989 8.40596 16.7219 8.40596Z" fill="#35231A"/>
<path d="M15.5543 10.389C12.3215 10.7091 9.6515 12.3389 8.56506 14.5248H15.5543V10.389ZM17.8899 10.389V14.5248H24.8782C23.7904 12.3376 21.1249 10.7077 17.8899 10.389Z" fill="white"/>
<path fill-rule="evenodd" clip-rule="evenodd" d="M29.5619 14.519C29.5174 14.6781 29.4891 14.844 29.4891 15.0179C29.4891 16.0374 30.3121 16.8609 31.332 16.8609H32.7192C32.6859 16.2285 32.4111 15.633 31.9516 15.1972C31.4921 14.7615 30.8829 14.5187 30.2496 14.519H29.5619Z" fill="#B39F91"/>
<path fill-rule="evenodd" clip-rule="evenodd" d="M3.88173 14.519C3.92668 14.6781 3.95454 14.844 3.95454 15.0179C3.95454 16.0374 3.13152 16.8609 2.11161 16.8609H0.724915C0.758196 16.2285 1.03293 15.633 1.49244 15.1972C1.95195 14.7615 2.56118 14.5187 3.19445 14.519H3.88173Z" fill="#E8D1C6"/>
<path opacity="0.413" fill-rule="evenodd" clip-rule="evenodd" d="M10.6031 18.9551L7.81079 23.4932C8.00048 23.5336 8.19871 23.5602 8.40053 23.5602C8.93436 23.5602 9.45732 23.4092 9.90896 23.1246C10.3606 22.84 10.7225 22.4335 10.9528 21.9519C11.1831 21.4703 11.2725 20.9333 11.2105 20.4031C11.1485 19.8729 10.9378 19.371 10.6026 18.9555L10.6031 18.9551Z" fill="#35231A"/>
<path opacity="0.466" fill-rule="evenodd" clip-rule="evenodd" d="M10.0268 23.0455L5.68556 19.9574C5.62993 20.148 5.59438 20.3438 5.57948 20.5418C5.54388 21.0744 5.65973 21.6062 5.91363 22.0758C6.16753 22.5454 6.54912 22.9335 7.0143 23.1954C7.47948 23.4572 8.00926 23.5821 8.54242 23.5556C9.07558 23.5291 9.59035 23.3522 10.0272 23.0455H10.0268Z" fill="#35231A"/>
<path opacity="0.413" fill-rule="evenodd" clip-rule="evenodd" d="M26.5058 22.7951L21.7748 20.3454C21.7464 20.5418 21.7385 20.7406 21.7514 20.9387C21.7908 21.471 21.9799 21.9814 22.2971 22.4108C22.6142 22.8401 23.0463 23.171 23.5436 23.3652C24.0408 23.5593 24.5828 23.6088 25.107 23.508C25.6312 23.4071 26.1161 23.1599 26.5058 22.7951Z" fill="#35231A"/>
<path opacity="0.466" fill-rule="evenodd" clip-rule="evenodd" d="M23.9427 23.4711L23.3283 18.1792C23.1539 18.2646 22.9822 18.3667 22.8235 18.4916C22.4042 18.8219 22.0869 19.2641 21.9082 19.7671C21.7296 20.2701 21.6969 20.8133 21.814 21.3341C21.931 21.8549 22.193 22.3319 22.5697 22.71C22.9464 23.0882 23.4224 23.3521 23.9427 23.4711Z" fill="#35231A"/>
</g>
<defs>
<clipPath id="clip0_97_2662">
<rect width="32" height="32" fill="white" transform="translate(0.724915)"/>
</clipPath>
</defs>
</svg>
