<svg width="33" height="32" viewBox="0 0 33 32" fill="none" xmlns="http://www.w3.org/2000/svg">
<path d="M25.675 24.4666C25.675 27.176 24.167 28.6667 21.431 28.6667H11.919C9.18297 28.6667 7.67499 27.1746 7.67499 24.4666C7.67499 21.416 9.40828 17.8534 14.2949 17.8534H19.0537C23.9417 17.852 25.675 21.416 25.675 24.4666ZM16.6857 15.3493C19.2751 15.3493 21.3804 13.252 21.3804 10.6746C21.3804 8.09597 19.2737 6 16.6857 6C14.0977 6 11.9924 8.09731 11.9924 10.6746C11.9924 13.252 14.0964 15.3493 16.6857 15.3493ZM25.7284 11.9067H23.5817C23.3951 11.9067 23.235 12.04 23.195 12.2134C22.9017 13.48 22.235 14.6133 21.315 15.48C21.0883 15.6933 21.2217 16.0666 21.5283 16.1466C23.8883 16.7066 25.5283 18.0934 26.5016 19.8534C26.5683 20 26.7017 20.0933 26.875 20.0933H27.4349C29.5282 20.0933 30.675 18.9467 30.675 16.8667C30.675 14.5867 29.3817 11.9067 25.7284 11.9067ZM24.0217 3.33333C22.691 3.33333 21.5296 4.06261 20.9203 5.14128C20.8709 5.22928 20.8736 5.32664 20.8923 5.41064C20.9123 5.49864 20.951 5.54541 21.0337 5.61475C22.339 6.71475 23.2097 8.30804 23.3524 10.1094C23.3604 10.2107 23.3951 10.2734 23.4564 10.3387C23.5177 10.404 23.6096 10.4439 23.731 10.4546C23.8256 10.4626 23.923 10.4679 24.0217 10.4679C25.9817 10.4679 27.5817 8.86803 27.5817 6.89469C27.5817 4.93336 25.9817 3.33333 24.0217 3.33333ZM2.67499 16.8667C2.67499 18.9467 3.82173 20.0933 5.91506 20.0933H6.47496C6.64829 20.0933 6.78166 20 6.84833 19.8534C7.82166 18.0934 9.46164 16.7066 11.8216 16.1466C12.1283 16.0666 12.2617 15.6933 12.035 15.48C11.115 14.6133 10.4483 13.48 10.155 12.2134C10.115 12.04 9.95492 11.9067 9.76825 11.9067H7.6216C3.96827 11.9067 2.67499 14.5867 2.67499 16.8667ZM5.76825 6.89339C5.76825 8.86672 7.36831 10.4666 9.32831 10.4666C9.42697 10.4666 9.52433 10.4613 9.619 10.4533C9.74166 10.4426 9.83224 10.4027 9.89358 10.3374C9.95491 10.2721 9.98958 10.2094 9.99758 10.1081C10.1402 8.30674 11.0109 6.71328 12.3163 5.61328C12.3976 5.54395 12.4377 5.49734 12.4577 5.40934C12.4764 5.32534 12.479 5.22931 12.4297 5.13997C11.819 4.06131 10.659 3.33203 9.32831 3.33203C7.36831 3.33336 5.76825 4.93339 5.76825 6.89339Z" fill="#7F5EA3"/>
</svg>
