<svg width="33" height="32" viewBox="0 0 33 32" fill="none" xmlns="http://www.w3.org/2000/svg">
<g clip-path="url(#clip0_97_2700)">
<path d="M19.8847 28.5C19.8379 28.8483 19.7331 29.1863 19.5747 29.5C19.2936 30.098 18.8482 30.6036 18.2904 30.9577C17.7325 31.3119 17.0855 31.5 16.4247 31.5C15.764 31.5 15.1169 31.3119 14.5591 30.9577C14.0013 30.6036 13.5558 30.098 13.2747 29.5C13.1163 29.1863 13.0115 28.8483 12.9647 28.5H19.8847Z" fill="#FF6900"/>
<path d="M16.4247 4.5C17.5293 4.5 18.4247 3.60457 18.4247 2.5C18.4247 1.39543 17.5293 0.5 16.4247 0.5C15.3201 0.5 14.4247 1.39543 14.4247 2.5C14.4247 3.60457 15.3201 4.5 16.4247 4.5Z" fill="#FF6900"/>
<path d="M15.4247 2.5C15.4255 2.05764 15.5733 1.62808 15.8448 1.27885C16.1163 0.929629 16.4962 0.680538 16.9247 0.570739C16.6501 0.49923 16.3634 0.487077 16.0837 0.535089C15.804 0.583102 15.5378 0.690177 15.3027 0.84918C15.0677 1.00818 14.8692 1.21546 14.7205 1.45719C14.5719 1.69893 14.4765 1.96957 14.4407 2.25108C14.4048 2.5326 14.4294 2.81851 14.5128 3.08977C14.5962 3.36103 14.7364 3.6114 14.9241 3.82421C15.1119 4.03701 15.3428 4.20735 15.6016 4.32388C15.8603 4.44041 16.1409 4.50045 16.4247 4.5C16.5937 4.49782 16.7618 4.47405 16.9247 4.42926C16.4962 4.31945 16.1163 4.07036 15.8448 3.72114C15.5733 3.37191 15.4255 2.94236 15.4247 2.5ZM13.9647 28.5H12.9647C13.0852 29.3321 13.5011 30.0931 14.1364 30.6439C14.7717 31.1947 15.5839 31.4986 16.4247 31.5C16.5923 31.4967 16.7594 31.4812 16.9247 31.4537C16.179 31.346 15.488 31.0002 14.9546 30.468C14.4213 29.9358 14.0741 29.2455 13.9647 28.5Z" fill="#FFB86A"/>
<path d="M28.9247 28.5H3.92468V26.5C3.92468 25.9696 4.1354 25.4609 4.51047 25.0858C4.88554 24.7107 5.39425 24.5 5.92468 24.5H26.9247C27.4551 24.5 27.9638 24.7107 28.3389 25.0858C28.714 25.4609 28.9247 25.9696 28.9247 26.5V28.5Z" fill="#FFB86A"/>
<path d="M6.92468 24.5H5.92468C5.39425 24.5 4.88554 24.7107 4.51047 25.0858C4.1354 25.4609 3.92468 25.9696 3.92468 26.5V28.5H4.92468V26.5C4.92468 25.9696 5.1354 25.4609 5.51047 25.0858C5.88554 24.7107 6.39425 24.5 6.92468 24.5Z" fill="#FF6900"/>
<path d="M26.9247 24.5H5.92468C6.45464 24.4984 6.96244 24.2872 7.33717 23.9125C7.71191 23.5378 7.92312 23.03 7.92468 22.5V13C7.92468 10.7457 8.82022 8.58365 10.4143 6.98959C12.0083 5.39553 14.1703 4.5 16.4247 4.5C18.679 4.5 20.841 5.39553 22.4351 6.98959C24.0292 8.58365 24.9247 10.7457 24.9247 13V22.5C24.9262 23.03 25.1375 23.5378 25.5122 23.9125C25.8869 24.2872 26.3947 24.4984 26.9247 24.5Z" fill="#FFB86A"/>
<path d="M26.9247 24.5H5.92468C6.45464 24.4984 6.96244 24.2872 7.33717 23.9125C7.71191 23.5378 7.92312 23.03 7.92468 22.5V21.5H24.9247V22.5C24.9262 23.03 25.1375 23.5378 25.5122 23.9125C25.8869 24.2872 26.3947 24.4984 26.9247 24.5Z" fill="#FF6900"/>
<path d="M30.7343 20.646C30.6415 20.6459 30.5505 20.62 30.4716 20.5712C30.3927 20.5224 30.3289 20.4526 30.2873 20.3696C30.2458 20.2866 30.2281 20.1937 30.2363 20.1013C30.2446 20.0089 30.2783 19.9205 30.3339 19.8462C31.1824 18.6981 31.5551 17.2669 31.3742 15.8508C31.1934 14.4347 30.473 13.1431 29.3632 12.2451C29.2595 12.1625 29.1928 12.0421 29.1779 11.9103C29.1629 11.7785 29.201 11.6462 29.2836 11.5425C29.3662 11.4388 29.4866 11.3721 29.6184 11.3572C29.7502 11.3423 29.8825 11.3803 29.9862 11.4629C31.2978 12.524 32.1494 14.0503 32.3633 15.7238C32.5773 17.3973 32.1372 19.0888 31.1347 20.4458C31.0881 20.508 31.0277 20.5585 30.9582 20.5932C30.8886 20.628 30.812 20.6461 30.7343 20.646Z" fill="#A1A1A1"/>
<path d="M28.3338 18.8457C28.241 18.8456 28.15 18.8197 28.071 18.7708C27.9921 18.722 27.9283 18.6521 27.8868 18.569C27.8454 18.4859 27.8279 18.3929 27.8363 18.3004C27.8447 18.208 27.8787 18.1197 27.9344 18.0454C28.3209 17.5228 28.4902 16.871 28.4071 16.2264C28.3239 15.5818 27.9946 14.9943 27.4881 14.5869C27.3846 14.5044 27.3181 14.3843 27.303 14.2528C27.288 14.1213 27.3257 13.9892 27.408 13.8855C27.4902 13.7818 27.6102 13.7149 27.7417 13.6996C27.8732 13.6843 28.0053 13.7217 28.1092 13.8037C28.8186 14.3739 29.2798 15.1966 29.3961 16.0992C29.5124 17.0019 29.2749 17.9146 28.7332 18.646C28.6868 18.7081 28.6266 18.7585 28.5572 18.7932C28.4879 18.8278 28.4114 18.8458 28.3338 18.8457ZM2.1151 20.646C2.03738 20.6461 1.96073 20.628 1.89122 20.5932C1.8217 20.5585 1.76125 20.508 1.71467 20.4458C0.712184 19.0888 0.272051 17.3973 0.486001 15.7239C0.699952 14.0504 1.55148 12.524 2.86311 11.4629C2.96684 11.3803 3.09914 11.3423 3.23091 11.3572C3.36267 11.3721 3.48311 11.4388 3.56572 11.5425C3.64834 11.6462 3.68636 11.7785 3.67143 11.9103C3.6565 12.0421 3.58984 12.1625 3.48611 12.2451C2.37631 13.1431 1.6559 14.4347 1.47506 15.8508C1.29422 17.2669 1.66689 18.6981 2.51541 19.8462C2.57095 19.9205 2.60473 20.0089 2.61295 20.1013C2.62118 20.1937 2.60353 20.2866 2.56199 20.3696C2.52044 20.4526 2.45664 20.5224 2.37771 20.5712C2.29877 20.62 2.2079 20.6459 2.1151 20.646Z" fill="#A1A1A1"/>
<path d="M4.51548 18.8457C4.43795 18.8458 4.36146 18.8278 4.29211 18.7932C4.22277 18.7585 4.16248 18.7081 4.11607 18.646C3.57444 17.9146 3.3369 17.0019 3.45322 16.0992C3.56954 15.1965 4.0307 14.3739 4.74007 13.8037C4.84396 13.7217 4.97614 13.6842 5.10761 13.6996C5.23907 13.7149 5.35909 13.7818 5.44133 13.8855C5.52357 13.9892 5.56131 14.1213 5.54628 14.2528C5.53126 14.3843 5.46468 14.5044 5.36116 14.5869C4.8547 14.9943 4.52543 15.5817 4.44224 16.2264C4.35906 16.871 4.52842 17.5228 4.91487 18.0454C4.97064 18.1196 5.00463 18.208 5.01304 18.3004C5.02144 18.3929 5.00393 18.4859 4.96247 18.569C4.921 18.6521 4.85722 18.7219 4.77827 18.7708C4.69932 18.8197 4.60834 18.8456 4.51548 18.8457Z" fill="#A1A1A1"/>
</g>
<defs>
<clipPath id="clip0_97_2700">
<rect width="32" height="32" fill="white" transform="translate(0.424683)"/>
</clipPath>
</defs>
</svg>
