<svg width="31" height="30" viewBox="0 0 31 30" fill="none" xmlns="http://www.w3.org/2000/svg">
<path d="M0.5 30L2.60875 22.2962C1.3075 20.0413 0.62375 17.485 0.625 14.8637C0.62875 6.66875 7.29749 0 15.4912 0C19.4675 0.00125 23.2 1.55 26.0074 4.36C28.8137 7.17 30.3587 10.905 30.3574 14.8775C30.3537 23.0738 23.6849 29.7425 15.4912 29.7425C13.0037 29.7413 10.5525 29.1175 8.38123 27.9325L0.5 30ZM8.74623 25.2413C10.8412 26.485 12.8412 27.23 15.4862 27.2313C22.2962 27.2313 27.8437 21.6887 27.8474 14.875C27.8499 8.0475 22.3287 2.5125 15.4962 2.51C8.68123 2.51 3.13749 8.0525 3.13499 14.865C3.13374 17.6462 3.94874 19.7287 5.31749 21.9075L4.06874 26.4675L8.74623 25.2413ZM22.98 18.4113C22.8875 18.2563 22.64 18.1637 22.2675 17.9775C21.8962 17.7913 20.07 16.8925 19.7287 16.7687C19.3887 16.645 19.1412 16.5825 18.8925 16.955C18.645 17.3263 17.9325 18.1637 17.7162 18.4113C17.5 18.6588 17.2825 18.69 16.9112 18.5037C16.54 18.3175 15.3425 17.9263 13.9237 16.66C12.82 15.675 12.0737 14.4587 11.8575 14.0863C11.6412 13.715 11.835 13.5138 12.02 13.3288C12.1875 13.1625 12.3912 12.895 12.5775 12.6775C12.7662 12.4625 12.8275 12.3075 12.9525 12.0588C13.0762 11.8113 13.015 11.5938 12.9212 11.4075C12.8275 11.2225 12.085 9.39375 11.7762 8.65C11.4737 7.92625 11.1675 8.02375 10.94 8.0125L10.2275 8C9.97998 8 9.57748 8.0925 9.23748 8.465C8.89748 8.8375 7.93748 9.735 7.93748 11.5638C7.93748 13.3925 9.26873 15.1587 9.45373 15.4062C9.63998 15.6537 12.0725 19.4062 15.7987 21.015C16.685 21.3975 17.3775 21.6262 17.9162 21.7975C18.8062 22.08 19.6162 22.04 20.2562 21.945C20.97 21.8387 22.4537 21.0462 22.7637 20.1787C23.0737 19.31 23.0737 18.5662 22.98 18.4113Z" fill="#25D366"/>
</svg>
